<svg xmlns="http://www.w3.org/2000/svg" width="17.66" height="21.032" viewBox="0 0 17.66 21.032">
  <g id="envase" transform="translate(-147.2 -329.3)">
    <path id="Trazado_33" data-name="Trazado 33" d="M162.079,358.36h-12.1a2.777,2.777,0,0,1-2.781-2.781v-12.1a2.777,2.777,0,0,1,2.781-2.781h12.1a2.777,2.777,0,0,1,2.781,2.781v12.1A2.777,2.777,0,0,1,162.079,358.36Zm-12.1-16.506a1.641,1.641,0,0,0-1.627,1.627v12.1a1.641,1.641,0,0,0,1.627,1.627h12.1a1.641,1.641,0,0,0,1.627-1.627v-12.1a1.641,1.641,0,0,0-1.627-1.627Z" transform="translate(0 -8.028)" fill="#1379fd"/>
    <path id="Trazado_34" data-name="Trazado 34" d="M168.639,364.014h-6.064a1.78,1.78,0,0,1-1.775-1.775v-6.064a1.78,1.78,0,0,1,1.775-1.775h6.064a1.78,1.78,0,0,1,1.775,1.775v6.064A1.78,1.78,0,0,1,168.639,364.014Zm-6.064-8.49a.657.657,0,0,0-.651.651v6.064a.657.657,0,0,0,.651.651h6.064a.657.657,0,0,0,.651-.651v-6.064a.657.657,0,0,0-.651-.651Z" transform="translate(-9.577 -17.675)" fill="#1379fd"/>
    <path id="Trazado_35" data-name="Trazado 35" d="M168.454,333.826H156v-2.662a1.856,1.856,0,0,1,1.864-1.864h8.7a1.856,1.856,0,0,1,1.864,1.864v2.662Zm-11.3-1.154h10.176v-1.509a.732.732,0,0,0-.74-.74h-8.7a.732.732,0,0,0-.74.74Z" transform="translate(-6.197)" fill="#1379fd"/>
  </g>
</svg>
