<svg xmlns="http://www.w3.org/2000/svg" width="22.524" height="22.456" viewBox="0 0 22.524 22.456">
  <g id="etiqueta" transform="translate(-271.487 -314)">
    <path id="Trazado_31" data-name="Trazado 31" d="M293.883,317.061a2.985,2.985,0,0,0-2.932-2.932L284.7,314a2.965,2.965,0,0,0-2.159.87l-10.181,10.084a3.025,3.025,0,0,0-.032,4.221l6.347,6.411a3.023,3.023,0,0,0,2.126.87h.032a2.9,2.9,0,0,0,2.062-.838l10.213-10.052a3.124,3.124,0,0,0,.9-2.191Zm-9.246-1.611h0l6.282.129a1.533,1.533,0,0,1,1.514,1.514l.129,6.347a1.61,1.61,0,0,1-.451,1.128L281.9,334.587a1.556,1.556,0,0,1-2.159,0l-6.347-6.411a1.6,1.6,0,0,1,0-2.191L283.573,315.9A1.516,1.516,0,0,1,284.636,315.45Z" fill="#1379fd"/>
    <path id="Trazado_32" data-name="Trazado 32" d="M323.5,324.4h0a2,2,0,1,0-2-2A1.987,1.987,0,0,0,323.5,324.4Zm-.58-2a.548.548,0,1,1,.548.548A.565.565,0,0,1,322.918,322.4Z" transform="translate(-33.9 -4.338)" fill="#1379fd"/>
  </g>
</svg>
