<svg xmlns="http://www.w3.org/2000/svg" width="19.434" height="18.131" viewBox="0 0 19.434 18.131">
  <g id="prescription_no" transform="translate(-290.2 -380.375)">
    <path id="Trazado_25" data-name="Trazado 25" d="M320.75,400.019a.667.667,0,0,1-.67-.67V389.34H310.07a.67.67,0,0,1,0-1.34h10.68a.667.667,0,0,1,.67.67v10.68A.667.667,0,0,1,320.75,400.019Z" transform="translate(-12.055 -4.788)" fill="#707070"/>
    <path id="Trazado_26" data-name="Trazado 26" d="M306.908,401.806H292.656a2.478,2.478,0,0,1-2.456-2.456V388.67a.667.667,0,0,1,.67-.67H295a.67.67,0,1,1,0,1.34H291.54v10.01a1.1,1.1,0,0,0,1.116,1.116h14.252a.67.67,0,0,1,0,1.34Z" transform="translate(0 -4.788)" fill="#707070"/>
    <path id="Trazado_27" data-name="Trazado 27" d="M302.942,409.14H299.37a.67.67,0,0,1,0-1.34h3.572a.667.667,0,0,1,.67.67A.692.692,0,0,1,302.942,409.14Z" transform="translate(-5.337 -17.22)" fill="#707070"/>
    <path id="Trazado_28" data-name="Trazado 28" d="M303.491,399.74H298.17a.67.67,0,0,1,0-1.34h5.321a.67.67,0,0,1,0,1.34Z" transform="translate(-4.584 -11.318)" fill="#707070"/>
    <path id="Trazado_29" data-name="Trazado 29" d="M311.174,398.506a.784.784,0,0,1-.484-.186L293.87,381.5a.658.658,0,0,1,.93-.93l16.82,16.82a.651.651,0,0,1,0,.93A.616.616,0,0,1,311.174,398.506Z" transform="translate(-2.182)" fill="#707070"/>
  </g>
</svg>
