<svg xmlns="http://www.w3.org/2000/svg" width="17.364" height="21.915" viewBox="0 0 17.364 21.915">
  <g id="Grupo_14" data-name="Grupo 14" transform="translate(-131.591 -40.671)">
    <path id="Trazado_58" data-name="Trazado 58" d="M154.081,64.445l-4.867-8.468h0A9.372,9.372,0,0,1,148,51.383v-1.9a1.46,1.46,0,0,0-.516-2.813h-3.893a1.45,1.45,0,0,0-.438,2.842v2.161a9.226,9.226,0,0,1-.973,4.137l-.574,1.149L137.8,64.553h0a2.434,2.434,0,0,0,2.18,3.533h11.991a2.433,2.433,0,0,0,2.112-3.64Zm-9.957-12.77v-2.57a.526.526,0,0,0-.535-.487.487.487,0,1,1,0-.973h3.893a.487.487,0,1,1,0,.973.487.487,0,0,0-.467.487v2.278a10.17,10.17,0,0,0,1.353,5.071l1.2,2.1h0a5.081,5.081,0,0,1-4.088-.506,6.881,6.881,0,0,0-2.755-1.217l.292-.594a10.161,10.161,0,0,0,1.11-4.565Zm9.1,14.707a1.43,1.43,0,0,1-1.256.73H139.978a1.47,1.47,0,0,1-1.246-.691A1.45,1.45,0,0,1,138.674,65l3.621-7.251a6.053,6.053,0,0,1,2.638,1.08,4.954,4.954,0,0,0,3.008.9,9.494,9.494,0,0,0,2.161-.282l3.134,5.49a1.43,1.43,0,0,1-.01,1.45Z" transform="translate(-5.695 -5.75)" fill="#1379fd"/>
    <path id="Trazado_59" data-name="Trazado 59" d="M134.272,62.586a2.684,2.684,0,0,1-2.394-3.9l.008-.015,3.8-7.576.574-1.148a9.021,9.021,0,0,0,.947-4.025V43.941a1.7,1.7,0,0,1,.691-3.269h3.9a1.722,1.722,0,0,1,1.337.692,1.7,1.7,0,0,1,.272,1.481,1.723,1.723,0,0,1-.848,1.049v1.739a9.139,9.139,0,0,0,1.184,4.471l.011.018,5.035,8.761-.026,0a2.684,2.684,0,0,1-2.483,3.7h-12Zm-1.96-3.645a2.183,2.183,0,0,0,1.961,3.144h12a2.183,2.183,0,0,0,1.895-3.266l-.043-.075-5.039-8.768h.014a9.644,9.644,0,0,1-1.049-4.343V43.566l.156-.063a1.218,1.218,0,0,0,.71-.793,1.2,1.2,0,0,0-.192-1.048,1.218,1.218,0,0,0-.943-.49h-3.9a1.2,1.2,0,0,0-.362,2.352l.18.053v2.349a9.524,9.524,0,0,1-1,4.249l-.574,1.149Zm13.97,2.671h-12a1.7,1.7,0,0,1-1.527-2.476l3.7-7.413.18.027a6.331,6.331,0,0,1,2.747,1.125,4.727,4.727,0,0,0,2.853.848h0a9.259,9.259,0,0,0,2.1-.275l.184-.046,3.228,5.654a1.681,1.681,0,0,1-.012,1.7l0,.005-.033.055-.055.092h-.006a1.681,1.681,0,0,1-1.366.7Zm-9.542-9.336L133.2,59.362a1.2,1.2,0,0,0,1.081,1.75h11.991a1.194,1.194,0,0,0,.6-.16,1.181,1.181,0,0,0,.436-.442l.038-.068a1.18,1.18,0,0,0-.027-1.134l-3.042-5.328a9.76,9.76,0,0,1-2.031.245,5.233,5.233,0,0,1-3.157-.941A5.836,5.836,0,0,0,136.74,52.277Zm5.659,1a5.338,5.338,0,0,1-2.746-.759l-.02-.013a6.673,6.673,0,0,0-2.654-1.172l-.32-.063.436-.886a9.963,9.963,0,0,0,1.084-4.45V43.366a.275.275,0,0,0-.28-.247h-.005a.737.737,0,1,1,0-1.474h3.893a.737.737,0,0,1,.006,1.474.236.236,0,0,0-.223.236v2.278a9.934,9.934,0,0,0,1.32,4.947l1.23,2.161v.252l-.178.054A5.324,5.324,0,0,1,142.4,53.275Zm-2.478-1.183a4.84,4.84,0,0,0,3.571.557l-1.037-1.821a10.434,10.434,0,0,1-1.386-5.2V43.355a.735.735,0,0,1,.707-.737h.01a.236.236,0,1,0,0-.473h-3.893a.236.236,0,0,0,0,.473h.013a.776.776,0,0,1,.774.719v2.59a10.462,10.462,0,0,1-1.137,4.677l-.15.3A7.185,7.185,0,0,1,139.921,52.092Z" transform="translate(0 0)" fill="#1379fd"/>
  </g>
</svg>
