<svg xmlns="http://www.w3.org/2000/svg" width="19.434" height="14" viewBox="0 0 19.434 14">
  <g id="prescription" transform="translate(-253.3 -328.7)">
    <path id="Trazado_21" data-name="Trazado 21" d="M284.643,344.232h3.472a.538.538,0,0,0,.453-.226.572.572,0,0,0,.113-.491h0a2.357,2.357,0,0,0-4.6,0h0a.544.544,0,0,0,.113.491.538.538,0,0,0,.453.226Zm1.736-5.132a1.208,1.208,0,1,0,1.208,1.208A1.192,1.192,0,0,0,286.379,339.1Z" transform="translate(-19.154 -6.475)" fill="#1379fd" fill-rule="evenodd"/>
    <path id="Trazado_22" data-name="Trazado 22" d="M270.243,342.7H255.791a2.513,2.513,0,0,1-2.491-2.491v-10.83a.676.676,0,0,1,.679-.679h18.075a.676.676,0,0,1,.679.679v10.83A2.488,2.488,0,0,1,270.243,342.7Zm-15.585-12.641v10.151a1.112,1.112,0,0,0,1.132,1.132h14.453a1.112,1.112,0,0,0,1.132-1.132V330.058Z" fill="#1379fd"/>
    <path id="Trazado_23" data-name="Trazado 23" d="M266.1,349.859h-3.623a.679.679,0,0,1,0-1.358H266.1a.679.679,0,0,1,0,1.358Z" transform="translate(-5.292 -12.328)" fill="#1379fd"/>
    <path id="Trazado_24" data-name="Trazado 24" d="M267.845,338.659h-6.566a.679.679,0,0,1,0-1.358h6.566a.679.679,0,0,1,0,1.358Z" transform="translate(-4.545 -5.355)" fill="#1379fd"/>
  </g>
</svg>
