<svg xmlns="http://www.w3.org/2000/svg" width="21.8" height="23.5" viewBox="0 0 21.8 23.5">
  <g id="ico3" transform="translate(-33.1 -23.7)">
    <path id="Trazado_52" data-name="Trazado 52" d="M40.7,41.8h0l-2,.5V28.5H49.1v1.2a.6.6,0,1,0,1.2,0V27.9a.645.645,0,0,0-.6-.6H38.1a.645.645,0,0,0-.6.6V43a.52.52,0,0,0,.2.4.758.758,0,0,0,.4.2h.1l2.7-.7a.319.319,0,0,0,.3-.3.6.6,0,0,0,.1-.4C41.3,41.9,41,41.8,40.7,41.8Z" fill="#1379fd"/>
    <path id="Trazado_53" data-name="Trazado 53" d="M36.6,38.3a.6.6,0,0,0-.4-.1h0l-1.9.5V24.9H44.7v1.2a.6.6,0,1,0,1.2,0V24.3a.645.645,0,0,0-.6-.6H33.7a.645.645,0,0,0-.6.6V39.4a.645.645,0,0,0,.6.6h.1l2.7-.7a.319.319,0,0,0,.3-.3.6.6,0,0,0,.1-.4Q36.9,38.45,36.6,38.3Z" fill="#1379fd"/>
    <path id="Trazado_54" data-name="Trazado 54" d="M54.2,30.9H42.6a.645.645,0,0,0-.6.6V46.6a.52.52,0,0,0,.2.4.758.758,0,0,0,.4.2h0c.1,0,.2,0,.2-.1l2.7-1.2,2.7,1.2a.446.446,0,0,0,.5,0l2.7-1.2,2.7,1.2a.349.349,0,0,1,.2.1.55.55,0,0,0,.5-.3.349.349,0,0,1,.1-.2V31.5C54.7,31.2,54.5,30.9,54.2,30.9Zm-.6,1.2V45.8l-2.1-1a.454.454,0,0,0-.5,0L48.4,46l-2.7-1.2a.349.349,0,0,1-.2-.1s-.2,0-.2.1l-2.1,1V32.1Z" fill="#1379fd"/>
    <path id="Trazado_55" data-name="Trazado 55" d="M45.3,35.6h6.2a.6.6,0,0,0,0-1.2H45.3a.645.645,0,0,0-.6.6A.576.576,0,0,0,45.3,35.6Z" fill="#1379fd"/>
    <path id="Trazado_56" data-name="Trazado 56" d="M45.3,37.1a.6.6,0,1,0,0,1.2h4.5a.6.6,0,1,0,0-1.2Z" fill="#1379fd"/>
    <path id="Trazado_57" data-name="Trazado 57" d="M45.3,42.7h6.2a.6.6,0,1,0,0-1.2H45.3a.6.6,0,0,0,0,1.2Z" fill="#1379fd"/>
  </g>
</svg>
