<svg xmlns="http://www.w3.org/2000/svg" width="21.372" height="23.153" viewBox="0 0 21.372 23.153">
  <g id="noun-transactions-4935077" transform="translate(-140.002 -52.504)">
    <path id="Trazado_40" data-name="Trazado 40" d="M230.512,136.988l-2.119.53V123.395h10.686v1.336a.445.445,0,0,0,.891,0v-1.781a.445.445,0,0,0-.445-.445H227.947a.445.445,0,0,0-.445.445v15.138a.444.444,0,0,0,.445.445.451.451,0,0,0,.107-.013l2.671-.668a.446.446,0,0,0-.223-.864Z" transform="translate(-83.048 -66.438)" fill="#1379fd"/>
    <path id="Trazado_41" data-name="Trazado 41" d="M143.012,66.988l-2.119.53V53.395h10.686V54.73a.445.445,0,0,0,.891,0V52.949a.445.445,0,0,0-.445-.445H140.447a.445.445,0,0,0-.445.445V68.088a.444.444,0,0,0,.445.445.451.451,0,0,0,.107-.013l2.671-.668a.446.446,0,0,0-.223-.864Z" transform="translate(0)" fill="#1379fd"/>
    <path id="Trazado_42" data-name="Trazado 42" d="M327.022,192.5H315.445a.445.445,0,0,0-.445.445v15.138a.447.447,0,0,0,.632.405l2.707-1.251,2.709,1.251a.446.446,0,0,0,.185.04.464.464,0,0,0,.187-.04l2.707-1.251,2.707,1.251a.447.447,0,0,0,.632-.405V192.945a.445.445,0,0,0-.445-.445Zm-.445,14.886-2.262-1.044h0a.444.444,0,0,0-.374,0l-2.707,1.251-2.709-1.251a.445.445,0,0,0-.372,0l-2.262,1.046v-14h10.686Z" transform="translate(-166.093 -132.872)" fill="#1379fd"/>
    <path id="Trazado_43" data-name="Trazado 43" d="M367.945,263.39h6.233a.445.445,0,0,0,0-.89h-6.233a.445.445,0,1,0,0,.89Z" transform="translate(-215.922 -199.31)" fill="#1379fd"/>
    <path id="Trazado_44" data-name="Trazado 44" d="M367.945,315.891H372.4a.445.445,0,0,0,0-.891h-4.452a.445.445,0,0,0,0,.891Z" transform="translate(-215.922 -249.139)" fill="#1379fd"/>
    <path id="Trazado_45" data-name="Trazado 45" d="M367.945,403.391h6.233a.445.445,0,0,0,0-.891h-6.233a.445.445,0,0,0,0,.891Z" transform="translate(-215.922 -332.186)" fill="#1379fd"/>
  </g>
</svg>
