<svg xmlns="http://www.w3.org/2000/svg" width="20.072" height="20.072" viewBox="0 0 20.072 20.072">
  <g id="vuesax_outline_profile-add" data-name="vuesax/outline/profile-add" transform="translate(-364 -252)">
    <g id="profile-add" transform="translate(364 252)">
      <path id="Unión_5" data-name="Unión 5" d="M1.8,16.559A3.626,3.626,0,0,1,0,13.573,3.607,3.607,0,0,1,1.8,10.6a8.813,8.813,0,0,1,9.065,0,.631.631,0,0,1,.175.869.623.623,0,0,1-.869.175,7.6,7.6,0,0,0-7.677,0,2.393,2.393,0,0,0-1.238,1.924,2.417,2.417,0,0,0,1.238,1.94,6.959,6.959,0,0,0,3.839,1.045.631.631,0,0,1,.008,1.262A8.211,8.211,0,0,1,1.8,16.559Zm7.686.376V15.89H8.438a.627.627,0,0,1,0-1.255H9.484V13.59a.627.627,0,1,1,1.254,0v1.045h1.045a.627.627,0,1,1,0,1.255H10.738v1.045a.627.627,0,1,1-1.254,0Zm-3-8.263H6.414a.457.457,0,0,0-.151,0A4.322,4.322,0,0,1,2.007,4.34,4.26,4.26,0,0,1,3.27,1.28a4.335,4.335,0,0,1,7.41,3.06A4.312,4.312,0,0,1,6.506,8.673ZM6.5,7.41A3.062,3.062,0,0,0,9.425,4.332a3.082,3.082,0,1,0-6.164,0A3.059,3.059,0,0,0,6.231,7.41.768.768,0,0,1,6.342,7.4C6.389,7.4,6.444,7.405,6.5,7.41Z" transform="translate(3.688 1.046)" fill="#fff"/>
      <path id="Vector" d="M0,0H20.072V20.072H0Z" fill="none" opacity="0"/>
    </g>
  </g>
</svg>
