<svg width="11" height="14" viewBox="0 0 11 14" fill="none" xmlns="http://www.w3.org/2000/svg">
<path d="M4.66667 10V10.3333C4.66667 10.4222 4.7 10.5 4.76667 10.5667C4.83333 10.6333 4.91111 10.6667 5 10.6667H5.66667C5.75556 10.6667 5.83333 10.6333 5.9 10.5667C5.96667 10.5 6 10.4222 6 10.3333V10H6.66667C6.85556 10 7.01389 9.93611 7.14167 9.80833C7.26944 9.68056 7.33333 9.52222 7.33333 9.33333V7.33333C7.33333 7.14444 7.26944 6.98611 7.14167 6.85833C7.01389 6.73056 6.85556 6.66667 6.66667 6.66667H4.66667V6H6.66667C6.85556 6 7.01389 5.93611 7.14167 5.80833C7.26944 5.68056 7.33333 5.52222 7.33333 5.33333C7.33333 5.14444 7.26944 4.98611 7.14167 4.85833C7.01389 4.73056 6.85556 4.66667 6.66667 4.66667H6V4.33333C6 4.24444 5.96667 4.16667 5.9 4.1C5.83333 4.03333 5.75556 4 5.66667 4H5C4.91111 4 4.83333 4.03333 4.76667 4.1C4.7 4.16667 4.66667 4.24444 4.66667 4.33333V4.66667H4C3.81111 4.66667 3.65278 4.73056 3.525 4.85833C3.39722 4.98611 3.33333 5.14444 3.33333 5.33333V7.33333C3.33333 7.52222 3.39722 7.68056 3.525 7.80833C3.65278 7.93611 3.81111 8 4 8H6V8.66667H4C3.81111 8.66667 3.65278 8.73056 3.525 8.85833C3.39722 8.98611 3.33333 9.14444 3.33333 9.33333C3.33333 9.52222 3.39722 9.68056 3.525 9.80833C3.65278 9.93611 3.81111 10 4 10H4.66667ZM1.33333 13.3333C0.966667 13.3333 0.652778 13.2028 0.391667 12.9417C0.130556 12.6806 0 12.3667 0 12V1.33333C0 0.966667 0.130556 0.652778 0.391667 0.391667C0.652778 0.130556 0.966667 0 1.33333 0H6.11667C6.29444 0 6.46389 0.0333333 6.625 0.1C6.78611 0.166667 6.92778 0.261111 7.05 0.383333L10.2833 3.61667C10.4056 3.73889 10.5 3.88056 10.5667 4.04167C10.6333 4.20278 10.6667 4.37222 10.6667 4.55V12C10.6667 12.3667 10.5361 12.6806 10.275 12.9417C10.0139 13.2028 9.7 13.3333 9.33333 13.3333H1.33333Z" fill="white"/>
</svg>
