<svg width="12" height="15" viewBox="0 0 12 15" fill="none" xmlns="http://www.w3.org/2000/svg">
<path d="M7.22917 0.5625V3.22917C7.22917 3.58279 7.36964 3.92193 7.61969 4.17198C7.86974 4.42202 8.20888 4.5625 8.5625 4.5625H11.2292M5.89583 7.22917V11.2292M5.89583 7.22917L7.89583 9.22917M5.89583 7.22917L3.89583 9.22917M7.89583 0.5625H1.89583C1.54221 0.5625 1.20307 0.702976 0.953024 0.953024C0.702976 1.20307 0.5625 1.54221 0.5625 1.89583V12.5625C0.5625 12.9161 0.702976 13.2553 0.953024 13.5053C1.20307 13.7554 1.54221 13.8958 1.89583 13.8958H9.89583C10.2495 13.8958 10.5886 13.7554 10.8386 13.5053C11.0887 13.2553 11.2292 12.9161 11.2292 12.5625V3.89583L7.89583 0.5625Z" stroke="#1876AB" stroke-width="1.125" stroke-linecap="round" stroke-linejoin="round"/>
</svg>
