<svg width="15" height="14" viewBox="0 0 15 14" fill="none" xmlns="http://www.w3.org/2000/svg">
<path d="M7.42866 4.75926V7.42593M7.42866 10.0926H7.43533M13.9153 10.7593L8.582 1.42593C8.46571 1.22073 8.29707 1.05006 8.09328 0.93131C7.88949 0.812564 7.65786 0.75 7.422 0.75C7.18614 0.75 6.9545 0.812564 6.75071 0.93131C6.54693 1.05006 6.37829 1.22073 6.262 1.42593L0.928664 10.7593C0.811119 10.9628 0.749483 11.1939 0.750003 11.4289C0.750524 11.664 0.813183 11.8948 0.931628 12.0978C1.05007 12.3009 1.2201 12.469 1.42446 12.5851C1.62883 12.7013 1.86027 12.7614 2.09533 12.7593H12.762C12.9959 12.759 13.2257 12.6972 13.4282 12.5801C13.6307 12.463 13.7988 12.2947 13.9157 12.092C14.0325 11.8894 14.094 11.6595 14.094 11.4256C14.0939 11.1917 14.0323 10.9619 13.9153 10.7593Z" stroke="#E2062E" stroke-width="1.5" stroke-linecap="round" stroke-linejoin="round"/>
</svg>
