<svg width="15" height="15" viewBox="0 0 15 15" fill="none" xmlns="http://www.w3.org/2000/svg">
<path d="M7.22917 0.5625C8.52259 0.562264 9.78816 0.938286 10.8716 1.64474C11.9551 2.35119 12.8096 3.35756 13.3311 4.54119C13.8526 5.72482 14.0186 7.0346 13.8087 8.31089C13.5988 9.58718 13.0222 10.7749 12.1492 11.7292M7.22917 3.22917V7.22917L9.89583 8.5625M0.895833 5.14583C0.6834 5.79161 0.570989 6.46607 0.5625 7.14583M1.11583 9.89583C1.49017 10.7571 2.04222 11.5295 2.73583 12.1625M2.31983 2.71917C2.50586 2.51665 2.70424 2.32584 2.91383 2.14783M4.99183 13.5092C6.6543 14.1014 8.48376 14.0103 10.0792 13.2558" stroke="#AD8B12" stroke-width="1.125" stroke-linecap="round" stroke-linejoin="round"/>
</svg>
