<svg width="18" height="18" viewBox="0 0 18 18" fill="none" xmlns="http://www.w3.org/2000/svg">
<path d="M9.2202 2.2533C9.5784 2.2533 9.97755 2.32879 10.2924 2.51931C10.6144 2.71428 10.8454 3.02934 10.8454 3.48299C10.8453 4.09067 10.4618 4.80115 9.93323 5.17027L9.9228 5.1778L9.91149 5.18366H9.90975C9.91711 5.19591 9.92614 5.20733 9.93671 5.21461C9.94668 5.22141 9.95343 5.22274 9.95497 5.22297H13.5906C13.6821 5.223 13.7705 5.25344 13.8367 5.31666C13.9028 5.37998 13.9349 5.4651 13.9349 5.5534V13.9237C13.9348 14.0118 13.9028 14.0973 13.8367 14.1604C13.7706 14.2233 13.6819 14.2533 13.5906 14.2533L10.4254 14.2349H4.85069C4.75918 14.2348 4.66986 14.2052 4.60374 14.142C4.53767 14.0788 4.50642 13.9935 4.50635 13.9053V10.5525L4.76461 10.7683C5.19192 11.1255 5.75913 11.3429 6.26285 11.343C6.66927 11.343 7.00159 11.1866 7.23501 10.9139C7.47056 10.6385 7.61405 10.2339 7.61413 9.72935C7.61413 9.22455 7.47063 8.81946 7.23501 8.54399C7.00159 8.27128 6.66929 8.11485 6.26285 8.11485C5.76157 8.115 5.19253 8.34934 4.76113 8.69289L4.50635 8.89617V5.5534C4.50635 5.4653 4.53788 5.37994 4.60374 5.31666C4.66986 5.25347 4.75917 5.22302 4.85069 5.22297H8.48543C8.50123 5.22297 8.5128 5.21836 8.51847 5.21461C8.52078 5.21298 8.52219 5.21127 8.52282 5.21042C8.52293 5.20998 8.52292 5.20913 8.52282 5.20791C8.52264 5.20615 8.52229 5.20209 8.52021 5.19704C8.51578 5.18658 8.50601 5.17283 8.49064 5.15772C7.97092 4.78535 7.59513 4.0841 7.595 3.48299C7.59503 3.02943 7.82695 2.71428 8.14891 2.51931C8.46356 2.32895 8.86218 2.25336 9.2202 2.2533Z" fill="#43AFF4"/>
</svg>
