<svg xmlns="http://www.w3.org/2000/svg" width="24" height="24" viewBox="0 0 24 24">
  <g id="vuesax_outline_trash" data-name="vuesax/outline/trash" transform="translate(-108 -188)">
    <g id="trash">
      <path id="Unión_4" data-name="Unión 4" d="M-1437.193,420c-2.563,0-2.667-1.437-2.747-2.6l-.477-7.494a.561.561,0,0,1,.514-.6.559.559,0,0,1,.588.521l.478,7.494c.081,1.131.11,1.555,1.645,1.555h4.717c1.542,0,1.572-.424,1.646-1.555l.477-7.494a.564.564,0,0,1,.588-.521.557.557,0,0,1,.514.6l-.478,7.494c-.081,1.161-.183,2.6-2.747,2.6Zm1.131-4.093a.559.559,0,0,1-.551-.559.559.559,0,0,1,.551-.558h2.446a.559.559,0,0,1,.551.558.559.559,0,0,1-.551.559Zm-.609-2.977a.559.559,0,0,1-.551-.558.558.558,0,0,1,.551-.558H-1433a.558.558,0,0,1,.551.558.559.559,0,0,1-.551.558Zm-5.326-5.358a.553.553,0,0,1,.492-.61l1.5-.149q1.029-.106,2.062-.162l.157-.948c.118-.714.28-1.7,1.991-1.7h1.925c1.719,0,1.88,1.027,1.991,1.711l.161.968v0c1.181.067,2.365.163,3.548.281a.557.557,0,0,1,.492.61.547.547,0,0,1-.544.506h-.059a57.117,57.117,0,0,0-11.607-.149l-1.5.149-.055,0A.556.556,0,0,1-1442,407.572Zm9.157-.945-.122-.729c-.1-.647-.125-.774-.9-.774h-1.925c-.779,0-.793.1-.9.766l-.125.713q.806-.025,1.615-.025Q-1434.023,406.578-1432.84,406.627Z" transform="translate(1554.246 -212)"/>
      <path id="Vector" d="M0,0H24V24H0Z" transform="translate(108 188)" fill="none" opacity="0"/>
    </g>
  </g>
</svg>
