<svg xmlns="http://www.w3.org/2000/svg" width="18" height="18" viewBox="0 0 18 18">
  <g id="vuesax_outline_edit-2" data-name="vuesax/outline/edit-2" transform="translate(-684 -252)">
    <g id="edit-2" transform="translate(684 252)">
      <path id="Unión_2" data-name="Unión 2" d="M.58,16.27a.572.572,0,1,1,0-1.145h13.93a.572.572,0,1,1,0,1.145Zm.736-2.923A1.8,1.8,0,0,1,.789,11.8l.286-2.473a2.735,2.735,0,0,1,.673-1.419L8.1,1.277c1.587-1.656,3.243-1.7,4.922-.137s1.726,3.2.139,4.853l-6.354,6.63a2.8,2.8,0,0,1-1.4.74l-2.491.42c-.132.008-.248.023-.372.023A1.788,1.788,0,0,1,1.316,13.348ZM2.592,8.686a1.747,1.747,0,0,0-.364.763l-.286,2.472a.664.664,0,0,0,.17.588.706.706,0,0,0,.6.137l2.491-.42a1.739,1.739,0,0,0,.751-.4l4.582-4.781A5.281,5.281,0,0,1,7.173,3.9ZM8.946,2.048,8.1,2.935a4.132,4.132,0,0,0,3.36,3.156l.855-.893c.96-1.007,1.308-1.938-.093-3.235a2.461,2.461,0,0,0-1.633-.832A2.374,2.374,0,0,0,8.946,2.048Z" transform="translate(1.454 0.922)"/>
      <path id="Vector" d="M0,0H18V18H0Z" fill="none" opacity="0"/>
    </g>
  </g>
</svg>
