<svg width="18" height="18" viewBox="0 0 18 18" fill="none" xmlns="http://www.w3.org/2000/svg">
<path d="M3.78784 8.30958C3.85321 8.37617 3.85321 8.44276 3.85321 8.50935C3.85321 8.64252 3.78784 8.7757 3.72248 8.90888C3.59174 9.17523 3.59174 9.50818 3.72248 9.70794C3.85321 9.9743 4.11468 10.1075 4.44151 10.1075C4.70298 10.1075 4.96445 9.9743 5.09518 9.70794C5.22592 9.44159 5.22592 9.10864 5.09518 8.90888C5.02982 8.7757 4.96445 8.64252 4.96445 8.50935C4.96445 8.37617 5.09518 8.24299 5.22592 8.24299H7.31766V6.44509C6.99083 6.64486 6.53326 6.64486 6.14106 6.3785C5.74885 6.11215 5.55275 5.71262 5.55275 5.2465C5.55275 4.78037 5.74885 4.38084 6.14106 4.11449C6.53326 3.91472 6.99083 3.84813 7.38303 4.0479V2.25H2.54587C2.02294 2.25 1.5 2.71612 1.5 3.31542V8.24299H3.59174C3.72248 8.24299 3.72248 8.30958 3.78784 8.30958Z" fill="#0070B7"/>
<path d="M9.73624 6.9778C9.99771 6.57827 10.3899 6.3785 10.8475 6.3785C11.305 6.3785 11.6972 6.57827 11.9587 6.9778C12.2202 7.37734 12.2202 7.84346 12.0241 8.24299H13.789V3.31542C13.789 2.71612 13.3314 2.25 12.7431 2.25H7.97133V4.38084C7.97133 4.44743 7.90596 4.51402 7.90596 4.58061C7.84059 4.6472 7.77523 4.6472 7.70986 4.6472C7.57913 4.6472 7.44839 4.58061 7.31766 4.51402C7.05619 4.38084 6.72936 4.38084 6.53326 4.51402C6.20642 4.71378 6.07569 4.98014 6.07569 5.2465C6.07569 5.57944 6.20642 5.84579 6.46789 5.97897C6.72936 6.11215 7.05619 6.11215 7.25229 5.97897C7.38303 5.91238 7.51376 5.84579 7.64449 5.84579C7.77523 5.84579 7.97133 5.97897 7.97133 6.11215V8.24299H9.73624C9.47477 7.84346 9.54014 7.37734 9.73624 6.9778Z" fill="#0070B7"/>
<path d="M13.5929 10.6402C13.4622 10.6402 13.3314 10.507 13.3314 10.3738C13.3314 10.2407 13.3968 10.1075 13.4622 9.9743C13.5929 9.70794 13.5929 9.44159 13.4622 9.17523C13.2661 8.90888 13.0046 8.7757 12.7431 8.7757C12.4817 8.7757 12.2202 8.90888 12.0241 9.17523C11.8934 9.44159 11.8934 9.70794 12.0241 9.9743C12.0895 10.1075 12.1548 10.2407 12.1548 10.3738C12.1548 10.507 12.0241 10.6402 11.8934 10.6402H9.73624V12.3715C10.1284 12.1717 10.6514 12.2383 11.0436 12.4381C11.4358 12.7044 11.6319 13.104 11.6319 13.5701C11.6319 14.0362 11.4358 14.4357 11.0436 14.7021C10.6514 14.9685 10.1938 14.9685 9.73624 14.7687V16.5H14.6388C15.2271 16.5 15.75 15.9673 15.75 15.368V10.6402H13.5929Z" fill="#43AFF4"/>
<path d="M8.8211 11.0397C8.55963 10.9065 8.2328 10.9065 8.0367 11.0397C7.90596 11.1063 7.77523 11.1729 7.6445 11.1729C7.51376 11.1729 7.38303 11.0397 7.38303 10.9065V8.7757H5.61812C5.81422 9.17523 5.74885 9.64135 5.55275 10.0409C5.35665 10.4404 4.89908 10.7068 4.44151 10.7068C4.04931 10.7068 3.59174 10.4404 3.39564 10.0409C3.13417 9.64135 3.13417 9.17523 3.33027 8.7757H1.56537V13.7033C1.56537 14.3026 2.02293 14.7687 2.61124 14.7687H7.44839V12.6378C7.44839 12.5713 7.51376 12.5047 7.51376 12.4381C7.51376 12.3715 7.6445 12.3715 7.70986 12.3715C7.8406 12.3715 7.97133 12.4381 8.10206 12.5047C8.36353 12.6378 8.69037 12.6378 8.88647 12.5047C9.14793 12.3715 9.27867 12.1051 9.27867 11.7722C9.27867 11.5058 9.08257 11.2395 8.8211 11.0397Z" fill="#0070B7"/>
</svg>
