<svg xmlns="http://www.w3.org/2000/svg" width="18" height="18" viewBox="0 0 18 18">
  <g id="vuesax_outline_profile-2user" data-name="vuesax/outline/profile-2user" transform="translate(-172 -252)">
    <g id="profile-2user" transform="translate(172 252)">
      <path id="Unión_3" data-name="Unión 3" d="M1.525,14.222A3.091,3.091,0,0,1,0,11.672,3.123,3.123,0,0,1,1.525,9.108a7.427,7.427,0,0,1,7.688,0,3.107,3.107,0,0,1,1.525,2.55,3.123,3.123,0,0,1-1.525,2.565A6.957,6.957,0,0,1,5.369,15.3,6.941,6.941,0,0,1,1.525,14.222Zm.589-4.21a2.07,2.07,0,0,0-1.05,1.667,2.063,2.063,0,0,0,1.05,1.652,6.34,6.34,0,0,0,6.51,0,2.069,2.069,0,0,0,1.049-1.667,2.065,2.065,0,0,0-1.049-1.652,5.917,5.917,0,0,0-3.255-.894A5.915,5.915,0,0,0,2.114,10.013Zm9.24,3.563a.546.546,0,0,1,.412-.639,2.865,2.865,0,0,0,1.177-.524,1.409,1.409,0,0,0,.624-1.107,1.4,1.4,0,0,0-.617-1.1,2.958,2.958,0,0,0-1.163-.524.543.543,0,0,1-.4-.646.536.536,0,0,1,.638-.409,3.939,3.939,0,0,1,1.575.718,2.48,2.48,0,0,1,1.035,1.961,2.511,2.511,0,0,1-1.043,1.968,3.815,3.815,0,0,1-1.6.718.328.328,0,0,1-.113.014A.525.525,0,0,1,11.354,13.576ZM10.6,7.542a.2.2,0,0,1-.064-.007.562.562,0,0,1-.617-.474.522.522,0,0,1,.44-.6c.085-.008.177-.008.255-.008A1.978,1.978,0,0,0,10.5,2.506a.528.528,0,0,1-.532-.531.539.539,0,0,1,.532-.539,3.055,3.055,0,0,1,.114,6.105ZM5.362,7.449H5.305a.384.384,0,0,0-.128,0,3.69,3.69,0,0,1-3.61-3.721A3.71,3.71,0,0,1,5.248,0a3.709,3.709,0,0,1,3.68,3.728A3.693,3.693,0,0,1,5.383,7.449Zm.014-1.078a2.631,2.631,0,1,0-.227,0,.646.646,0,0,1,.095-.005C5.284,6.366,5.33,6.367,5.376,6.371Z" transform="translate(1.599 1.25)"/>
      <path id="Vector" d="M0,0H18V18H0Z" fill="none" opacity="0"/>
    </g>
  </g>
</svg>
