<svg xmlns="http://www.w3.org/2000/svg" width="56.903" height="48.535" viewBox="0 0 56.903 48.535">
  <g id="Grupo_17333" data-name="Grupo 17333" transform="translate(-993.549 -103.111)">
    <g id="Polígono_1" data-name="Polígono 1" transform="translate(993.549 103.111)" fill="#fff">
      <path d="M 51.66720199584961 46.78516006469727 L 5.236081123352051 46.78516006469727 C 4.582221031188965 46.78516006469727 4.25977087020874 46.34555816650391 4.151481151580811 46.15655899047852 C 4.043200969696045 45.96756744384766 3.827041149139404 45.46709060668945 4.157711029052734 44.90300750732422 L 27.37326049804688 5.299999237060547 C 27.70016098022461 4.742349147796631 28.23630142211914 4.68213939666748 28.45164108276367 4.68213939666748 C 28.66697120666504 4.68213939666748 29.20311164855957 4.742349147796631 29.53001022338867 5.299999237060547 L 52.74557113647461 44.90300750732422 C 53.07624053955078 45.46709060668945 52.86008071899414 45.96756744384766 52.75180053710938 46.15655899047852 C 52.64351272583008 46.34555816650391 52.32106018066406 46.78516006469727 51.66719055175781 46.78516006469727 L 51.66720199584961 46.78516006469727 Z" stroke="none"/>
      <path d="M 28.45163726806641 6.920833587646484 L 6.108768463134766 45.03516006469727 L 50.79451751708984 45.03516006469727 L 28.45163726806641 6.920833587646484 M 28.45163917541504 2.932140350341797 C 29.45593643188477 2.932140350341797 30.46023178100586 3.426425933837891 31.03973197937012 4.414989471435547 L 54.25529098510742 44.01799774169922 C 55.42766952514648 46.01792907714844 53.98543167114258 48.53514862060547 51.66720199584961 48.53516006469727 L 5.236080169677734 48.53516006469727 C 2.917850494384766 48.53514862060547 1.475612640380859 46.01792907714844 2.647991180419922 44.01799774169922 L 25.86354064941406 4.414989471435547 C 26.44304656982422 3.426425933837891 27.44734382629395 2.932140350341797 28.45163917541504 2.932140350341797 Z" stroke="none" fill="#fec703"/>
    </g>
    <g id="Grupo_17330" data-name="Grupo 17330" transform="translate(1019.699 120.924)">
      <path id="Trazado_6512" data-name="Trazado 6512" d="M559.1,1702.8a2.3,2.3,0,1,1-2.3-2.3A2.3,2.3,0,0,1,559.1,1702.8Z" transform="translate(-554.5 -1682.577)" fill="#fec703"/>
      <path id="Trazado_6513" data-name="Trazado 6513" d="M556,1702.994V1691" transform="translate(-553.908 -1691)" fill="none" stroke="#fec703" stroke-linecap="round" stroke-linejoin="round" stroke-width="3.5"/>
    </g>
  </g>
</svg>
