<?xml version="1.0" encoding="utf-8"?>
<!-- Generator: Adobe Illustrator 24.2.1, SVG Export Plug-In . SVG Version: 6.00 Build 0)  -->
<svg version="1.1" id="Layer_1" xmlns="http://www.w3.org/2000/svg" xmlns:xlink="http://www.w3.org/1999/xlink" x="0px" y="0px"
	 viewBox="0 0 1954 723" style="enable-background:new 0 0 1954 723;" xml:space="preserve">
<style type="text/css">
	.st0{fill:#6C90B3;}
</style>
<g>
	<path class="st0" d="M910.1,28.1c-96.6,0-174.8,71.2-174.8,159c0,87.8,78.3,159,174.8,159c96.6,0,174.8-71.2,174.8-159
		C1084.9,99.3,1006.6,28.1,910.1,28.1z M998.1,300.6c-22.1,24.8-55.5,34.9-88.1,34.9c-39,0-77.8-17.6-100.4-51.6
		c-16.9-25.4-22.9-61.7-22.9-96.7c0-41,8.1-80.4,30.4-107.3c22.3-26.8,58.9-41,93-41c35.8,0,71.7,16.1,94.3,45.4
		c20.3,26.4,29.1,64.1,29.1,102.9C1033.4,230,1022.2,273.6,998.1,300.6z"/>
	<path class="st0" d="M279.4,400c-45.3,0-82,33.4-82,74.6c0,41.2,36.7,74.6,82,74.6c45.3,0,82-33.4,82-74.6
		C361.4,433.5,324.7,400,279.4,400z M320.7,527.8c-10.4,11.7-26,16.5-41.3,16.5c-18.3,0-36.5-8.3-47.1-24.4
		c-7.9-12-10.8-29.2-10.8-45.7c0-19.4,3.8-38,14.2-50.7c10.5-12.7,27.6-19.4,43.6-19.4c16.8,0,33.6,7.6,44.2,21.5
		c9.6,12.5,13.7,30.3,13.7,48.7C337.3,494.3,332,515,320.7,527.8z"/>
	<path class="st0" d="M935.1,427.3c-35.6,0-64.5,27.3-64.5,61s28.9,61,64.5,61c35.6,0,64.5-27.3,64.5-61S970.7,427.3,935.1,427.3z
		 M967.5,531.8c-8.1,9.5-20.5,13.4-32.5,13.4c-14.4,0-28.7-6.8-37.1-19.8c-6.2-9.7-8.5-23.7-8.5-37.1c0-15.7,3-30.8,11.2-41.1
		c8.2-10.3,21.7-15.7,34.3-15.7c13.2,0,26.4,6.2,34.8,17.4c7.5,10.1,10.8,24.6,10.8,39.5C980.6,504.7,976.5,521.4,967.5,531.8z"/>
	<path class="st0" d="M608.7,438c0.7,0,7.9-1.9,14-4.4c6.1-2.6,10.2-4.2,10.2-4.2s1.8,97.9,1.8,101.8c0,5.6,2.9,11.9,9.7,13.3h-34.8
		c0,0,7.9-4,7.9-12.6c0-8.6,0-75.1,0-78.8c0-3.7-1.8-8.8-4.5-11.6C610.3,438.7,608.7,438,608.7,438z"/>
	<path class="st0" d="M558.2,544.5H594c-7-1.4-10.7-7-10.7-12.6c0-1.1-0.1-5.3-0.2-10.8c0,0-0.4-33.4-0.7-48.1
		c-0.2-9.7-0.7-20.4-7.7-28.8c-19.7-23.9-54-19.6-67.8-6.6c-7.7,7.3-11.8,16.3-13.8,22.5c-1-5.6-2.8-11.1-6.6-15.9
		c-17.3-21.8-52.3-18.8-65.1-7.2c-8.7,7.9-13.8,18.3-16.3,24.7c-0.3-18-0.6-32.4-0.6-32.4s-4.2,1.6-10.5,4.2
		c-6.3,2.6-13.7,4.4-14.4,4.4c0,0,1.6,0.7,4.4,3.5c2.8,2.8,4.7,7.9,4.7,11.6V532c0,8.6-8.1,12.6-8.1,12.6h35.8
		c-7-1.4-10-7.7-10-13.3c0-1.8-0.4-22.1-0.8-44.2c1.6-43.1,24.9-52,42.1-52.1c12.1-0.1,21.9,7.7,25.7,15.6
		c4.1,8.4,4.8,27.7,4.8,27.7V532c0,8.6-8.1,12.6-8.1,12.6h35.8c-7-1.4-10.7-7-10.7-12.6c0-1.1-0.1-5.3-0.2-10.8
		c0,0-0.2-21.6-0.5-37.7c2.2-44.7,28.5-50.8,42.1-49.2c13.2,1.6,21,10.7,24.9,18.6c4.1,8.4,5,25.4,5,25.4V532
		C566.3,540.6,558.2,544.5,558.2,544.5z"/>
	<g>
		<g>
			<path class="st0" d="M1111.8,544.5h35.8c-7-1.4-10.7-7-10.7-12.6c0-1.1-0.1-5.3-0.2-10.8c0,0-0.3-33.4-0.7-48.1
				c-0.2-9.7-0.7-20.4-7.7-28.8c-19.7-23.9-56.9-19.3-70.1-6.3c-7.6,7.5-11.8,16.3-13.9,22.5c-0.3-17.4-0.6-31.1-0.6-31.1
				s-4.2,1.6-10.5,4.2c-6.3,2.6-13.7,4.4-14.4,4.4c0,0,1.6,0.7,4.4,3.5c2.8,2.8,4.7,7.9,4.7,11.6V532c0,8.6-8.1,12.6-8.1,12.6h35.8
				c-7-1.4-10-7.7-10-13.3c0-1.6-0.3-18.4-0.7-37.9c1.2-54,27.1-60.6,45.2-59.1c13.2,1.2,21,10.7,24.9,18.6c4.1,8.4,5,25.4,5,25.4
				V532C1120,540.6,1111.8,544.5,1111.8,544.5z"/>
		</g>
	</g>
	<path class="st0" d="M635,402.1c0-6.1-4.6-11-10.3-11c-5.7,0-10.3,4.9-10.3,11c0,6.1,4.6,11,10.3,11
		C630.3,413.1,635,408.1,635,402.1z"/>
	<path class="st0" d="M828.1,439.3c-6.5,6.9-11.2,14.8-14.2,21c-0.3-17.2-0.6-30.8-0.6-30.8s-4.2,1.6-10.5,4.2
		c-6.3,2.6-13.7,4.4-14.4,4.4c0,0,1.6,0.7,4.4,3.5c2.8,2.8,4.7,7.9,4.7,11.6V532c0,8.6-8.1,12.6-8.1,12.6h35.8
		c-7-1.4-10-7.7-10-13.3c0-2-0.5-29.1-1-54.8c2.1-10.5,7.6-25.6,16.4-30.7c10.2-5.9,20.2,2.1,20.2,2.1l7.4-20.5
		C858.1,427.3,841.6,425,828.1,439.3z"/>
	<path class="st0" d="M771.1,513.9c-2.2,7.7-7.5,14.2-11.8,17.7c-9.7,8-20.9,12.8-33.2,12.8c-14.7,0-28.8-7.9-37.4-20.8
		c-6.4-9.7-9.2-22.3-9.2-35.7c0-15.6,3-30.6,11.5-40.9c8.4-10.2,22.3-15.6,35.1-15.6c13.5,0,24.8,4.8,33.4,15.9
		c2.9,3.8,7,12.2,8.7,17c1.4-3.9,5.6-17.1,7.2-21.6c-12.6-9.2-30.3-15.5-49.3-15.5c-36.5,0-65.8,22-66,60.6
		c-0.2,33.5,29.6,60.6,66,60.6c21.2,0,39.1-12,49.1-27.9C774.6,519.6,772.4,515.9,771.1,513.9z"/>
	<path class="st0" d="M1203.3,403.1c0,0,5.6,0.6,8.7,7.1c3.1,6.5,3.1,9.6,3.1,14.6c0,5,0,88.7,0,94.5c0,5.9-0.6,15.2-5.3,19.2
		c-4.7,4-10.2,6.2-11.5,6.2c-1.2,0,134.2,0,134.2,0s7.1-24.5,7.7-29.8c0,0-3.7,7.4-22.6,16.4c-18.9,9-21.1,9.3-36.9,9.3
		c-15.8,0-26,0-30.4,0c-4.3,0-9.6-3.1-12.4-6.8c-2.8-3.7-4.3-14.9-4.3-22.9c0-8.1,0-84.9,0-87.4c0-2.5,0.3-10.2,2.8-13.6
		c2.5-3.4,8.4-6.8,8.4-6.8H1203.3z"/>
	<g>
		<g>
			<path class="st0" d="M1460.3,536.4c-2-4.1-3.1-10.8-3.1-15.4V467c0-8.1-1.7-17.7-8.5-26.7c-6.8-9-23.2-13.3-40.2-13.3
				c-17.1,0-26.3,2.4-33.7,4.6c-9.3,2.7-19.8,8.1-19.8,8.1l7.1,20.8c3-15,15-24.1,21.2-26c6.2-1.9,27.1-7.2,42,0.9
				c14.9,8.1,15.7,24.8,15.7,28.2v11.8c-5.9-0.1-20.4-0.2-27.9,0c-15.1,0.5-42.8,5.3-55.3,19.5c-13.9,15.7-6.4,36.3,10.5,46.5
				c14.7,8.8,52.2,11,64.9-3.6c4.7-5.4,7.2-10.6,8.6-14.6c0.5,7.4,1.1,12.8,1.9,14.7c1.5,3.8,3.7,6.5,3.7,6.5h21.7
				C1469,544.5,1463.4,542.4,1460.3,536.4z M1439.5,515c-0.8,4.5-2.7,8.9-4.5,12.3c-5.9,11-20.3,22.4-48.1,13.3
				c-25.3-8.4-15.5-39.3-12.3-43.7c3-4.2,9.5-12.3,35.8-15.3c16.3-1.9,26.7-1.6,30.7-1.3v18.4c0,0.4,0,0.8,0,1.3
				C1440.9,503.7,1440.5,509.4,1439.5,515z"/>
		</g>
	</g>
	<g>
		<g>
			<path class="st0" d="M1554.6,427.6c-21,0-38.7,11.5-49,28.3c0-11.1,0.6-72.3,0.6-72.3s-8.7,5-26.4,8.7c2.8,2.2,7.1,2.5,8.1,4.7
				c0.9,2.2,4,9.9,4,21.7c0,11.8,0.6,83.1-0.6,95.8c-1.2,12.7-4,27.6-12.4,30.1h18.9c0,0,5-7.8,6.2-17.7c0.1-0.9,0.2-2.2,0.3-3.8
				c10.1,16.9,28.3,26.7,50.2,26.7c33.6,0,59.9-27,59.9-60.8S1588.1,427.6,1554.6,427.6z M1549.9,545.7c-25,0-44.4-24.6-44.4-56
				c0-31.4,19.4-57.7,44.4-57.7c25,0,45.3,16.9,45.3,56.9C1595.2,524.2,1574.9,545.7,1549.9,545.7z"/>
		</g>
	</g>
	<g>
		<path class="st0" d="M314.5,597.6c0.6-0.1,1.4-0.2,2.5-0.3c1.1-0.1,2.3-0.3,3.5-0.4c1.3-0.1,2.6-0.2,3.9-0.3
			c1.3-0.1,2.5-0.1,3.6-0.1c3.5,0,6.7,0.4,9.6,1.1c2.9,0.7,5.3,1.8,7.4,3.4c2.1,1.5,3.7,3.5,4.8,6c1.1,2.5,1.7,5.5,1.7,9
			c0,3.8-0.6,7-1.9,9.7c-1.3,2.7-3,4.8-5.2,6.5c-2.1,1.6-4.7,2.9-7.6,3.6c-2.9,0.8-5.9,1.2-9.1,1.2c-1.4,0-5.8,0.2-7.1,0v24.8
			c-0.4,0.1-0.9,0.1-1.4,0.1c-0.5,0-1.1,0-1.6,0c-0.6,0-1.2,0-1.8,0c-0.6,0-1-0.1-1.4-0.1V597.6z M320.7,631.3c0.6,0.1,5.7,0,6.6,0
			c2.2,0,4.3-0.2,6.4-0.5c2.1-0.4,4-1.1,5.7-2.2c1.7-1.1,3.1-2.6,4.1-4.6c1-2,1.6-4.6,1.6-7.9c0-2.6-0.4-4.8-1.2-6.5
			c-0.8-1.8-1.9-3.2-3.5-4.3c-1.5-1.1-3.3-1.8-5.4-2.3c-2.2-0.5-4.5-0.7-7.2-0.7c-1.6,0-2.9,0-4.1,0.1c-1.2,0.1-2.2,0.2-3,0.3V631.3
			z"/>
		<path class="st0" d="M362.9,596.2c0.3-0.1,0.8-0.1,1.5-0.1c0.6,0,1.1,0,1.5,0c0.3,0,0.8,0,1.4,0c0.6,0,1.1,0.1,1.5,0.1v28.2
			c0.6-1.1,1.4-2.2,2.3-3.3c1-1.1,2.1-2.1,3.3-3c1.3-0.9,2.7-1.6,4.3-2.1c1.6-0.5,3.3-0.8,5.2-0.8c5.2,0,9.1,1.6,11.6,4.7
			c2.5,3.1,3.7,7.5,3.7,13.2v28.7c-0.4,0.1-0.9,0.1-1.5,0.1c-0.6,0-1.1,0-1.5,0c-0.3,0-0.8,0-1.4,0c-0.7,0-1.2-0.1-1.5-0.1v-27
			c0-5-0.8-8.7-2.5-10.9c-1.7-2.2-4.1-3.3-7.2-3.3c-2.1,0-4.1,0.4-5.9,1.2c-1.8,0.8-3.4,1.9-4.7,3.4c-1.3,1.5-2.4,3.4-3.1,5.7
			c-0.8,2.3-1.1,4.9-1.1,7.9v22.9c-0.4,0.1-0.8,0.1-1.5,0.1c-0.6,0-1.1,0-1.5,0c-0.3,0-0.8,0-1.5,0c-0.6,0-1.2-0.1-1.5-0.1V596.2z"
			/>
		<path class="st0" d="M439.3,631.8c0-4-0.9-6.8-2.8-8.6c-1.8-1.8-4.6-2.7-8.2-2.7c-2.4,0-4.6,0.2-6.5,0.5c-2,0.3-3.7,0.7-5.3,1.2
			c-0.3-0.5-0.6-1.3-0.8-2.3c-0.2-1-0.3-2-0.3-2.9c1.6-0.5,3.4-0.9,5.7-1.2c2.3-0.3,4.6-0.5,7-0.5c5.8,0,10.1,1.3,12.9,3.8
			c2.8,2.5,4.2,6.5,4.2,11.9V661c-2.1,0.4-4.6,0.8-7.6,1.3c-3,0.4-5.8,0.6-8.5,0.6c-5.6,0-9.9-1.1-13.1-3.3
			c-3.2-2.2-4.8-5.8-4.8-10.7c0-2.4,0.5-4.5,1.4-6.4c0.9-1.9,2.2-3.5,3.8-4.7c1.6-1.3,3.6-2.2,5.9-2.9c2.3-0.7,4.8-1,7.6-1
			c2.1,0,4,0.1,5.5,0.2c1.6,0.2,2.8,0.3,3.9,0.4V631.8z M439.3,639.7c-1-0.1-2.3-0.3-3.8-0.4c-1.5-0.1-3-0.2-4.3-0.2
			c-4.5,0-7.9,0.8-10.4,2.5c-2.4,1.7-3.7,4.1-3.7,7.1c0,2,0.4,3.5,1.1,4.7c0.7,1.2,1.7,2.1,2.9,2.7c1.2,0.6,2.5,1,3.9,1.3
			c1.4,0.2,2.9,0.3,4.3,0.3c1.8,0,3.6-0.1,5.2-0.3c1.6-0.2,3.2-0.4,4.7-0.7V639.7z"/>
		<path class="st0" d="M460,616.3c0.5-0.1,0.9-0.1,1.4-0.1c0.4,0,0.9,0,1.3,0c0.5,0,0.9,0,1.3,0c0.4,0,0.9,0.1,1.3,0.1
			c0.1,1.1,0.2,2.3,0.3,3.8c0.1,1.5,0.1,2.8,0.1,4c1.2-2.2,2.9-4.1,5-5.6c2.2-1.5,5-2.3,8.5-2.3c0.3,0,0.6,0,0.9,0
			c0.3,0,0.7,0,1.1,0.1c0.2,1,0.3,1.9,0.3,2.9c0,1-0.1,1.9-0.3,2.8c-0.5-0.1-0.9-0.1-1.1-0.1c-0.3,0-0.5,0-0.8,0
			c-4.1,0-7.3,1.3-9.7,3.9c-2.5,2.6-3.7,6.8-3.7,12.8v23.4c-0.4,0.1-0.8,0.1-1.5,0.1c-0.6,0-1.1,0-1.5,0c-0.3,0-0.8,0-1.4,0
			c-0.6,0-1.2-0.1-1.5-0.1V616.3z"/>
		<path class="st0" d="M491.3,616.3c0.5-0.1,0.9-0.1,1.4-0.1c0.4,0,0.9,0,1.3,0c0.5,0,0.9,0,1.3,0c0.4,0,0.9,0.1,1.4,0.1
			c0.1,1.1,0.2,2.4,0.3,3.8c0.1,1.5,0.1,2.8,0.1,4c0.6-1.1,1.2-2.2,2.1-3.3c0.9-1.1,1.8-2,3-2.8s2.4-1.5,3.9-2
			c1.5-0.5,3.1-0.8,5-0.8c1.7,0,3.2,0.2,4.5,0.6c1.2,0.4,2.3,1,3.2,1.7c0.9,0.7,1.7,1.6,2.3,2.6c0.6,1,1.2,2.1,1.7,3.4
			c0.7-1,1.4-1.9,2.2-3c0.8-1,1.8-1.9,2.9-2.7c1.1-0.8,2.3-1.5,3.7-1.9c1.4-0.5,3-0.8,4.7-0.8c5.3,0,9.1,1.5,11.5,4.6
			c2.3,3,3.5,7.4,3.5,13v29c-0.4,0.1-0.8,0.1-1.5,0.1c-0.6,0-1.1,0-1.5,0c-0.3,0-0.8,0-1.4,0c-0.7,0-1.2-0.1-1.5-0.1v-27
			c0-4.8-0.8-8.4-2.4-10.7c-1.6-2.3-4-3.5-7.1-3.5c-1.9,0-3.6,0.4-5,1.2c-1.5,0.8-2.6,1.8-3.6,3.1c-1,1.3-1.7,2.8-2.2,4.6
			c-0.5,1.8-0.7,3.6-0.7,5.6v26.7c-0.4,0.1-0.9,0.1-1.5,0.1c-0.6,0-1.1,0-1.5,0c-0.3,0-0.8,0-1.5,0c-0.6,0-1.1-0.1-1.5-0.1v-28.1
			c0-4.6-0.7-8-2.2-10.2c-1.5-2.2-3.6-3.3-6.3-3.3c-1.8,0-3.5,0.5-5.1,1.4c-1.5,0.9-2.9,2.2-4,3.9c-1.1,1.7-2,3.7-2.6,6
			c-0.6,2.3-0.9,4.8-0.9,7.5v22.9c-0.4,0.1-0.8,0.1-1.5,0.1c-0.6,0-1.1,0-1.5,0c-0.3,0-0.8,0-1.4,0c-0.7,0-1.2-0.1-1.5-0.1V616.3z"
			/>
		<path class="st0" d="M591.3,631.8c0-4-0.9-6.8-2.8-8.6c-1.8-1.8-4.6-2.7-8.2-2.7c-2.4,0-4.6,0.2-6.5,0.5c-2,0.3-3.7,0.7-5.3,1.2
			c-0.3-0.5-0.5-1.3-0.8-2.3c-0.2-1-0.3-2-0.3-2.9c1.6-0.5,3.4-0.9,5.7-1.2c2.3-0.3,4.6-0.5,7-0.5c5.8,0,10.1,1.3,12.9,3.8
			c2.8,2.5,4.2,6.5,4.2,11.9V661c-2.1,0.4-4.6,0.8-7.6,1.3c-3,0.4-5.8,0.6-8.5,0.6c-5.5,0-9.9-1.1-13.1-3.3
			c-3.2-2.2-4.8-5.8-4.8-10.7c0-2.4,0.5-4.5,1.4-6.4c0.9-1.9,2.2-3.5,3.8-4.7c1.7-1.3,3.6-2.2,5.9-2.9c2.3-0.7,4.8-1,7.6-1
			c2.2,0,4,0.1,5.6,0.2c1.6,0.2,2.8,0.3,3.9,0.4V631.8z M591.3,639.7c-1-0.1-2.3-0.3-3.8-0.4c-1.5-0.1-3-0.2-4.3-0.2
			c-4.5,0-7.9,0.8-10.4,2.5c-2.4,1.7-3.7,4.1-3.7,7.1c0,2,0.4,3.5,1.1,4.7c0.8,1.2,1.7,2.1,2.9,2.7c1.2,0.6,2.5,1,3.9,1.3
			c1.4,0.2,2.9,0.3,4.3,0.3c1.8,0,3.6-0.1,5.2-0.3c1.6-0.2,3.2-0.4,4.8-0.7V639.7z"/>
		<path class="st0" d="M642.3,656.1c0.3,0.6,0.6,1.4,0.8,2.4c0.2,1,0.5,1.9,0.6,2.5c-1.5,0.5-3.2,1-5.1,1.3c-1.9,0.4-4,0.5-6.3,0.5
			c-7.5,0-13.1-2-17-6.1c-3.9-4.1-5.8-10-5.8-17.7c0-3.4,0.5-6.5,1.4-9.4c1-2.9,2.4-5.4,4.2-7.5c1.8-2.1,4.1-3.8,6.9-5
			c2.8-1.2,6-1.8,9.6-1.8c2.3,0,4.4,0.2,6.5,0.5c2.1,0.3,3.7,0.7,4.9,1.1c0,0.8-0.1,1.7-0.3,2.7c-0.2,1-0.5,1.8-0.7,2.4
			c-1.2-0.4-2.7-0.8-4.5-1.1c-1.8-0.3-3.8-0.4-5.8-0.4c-2.7,0-5,0.5-7,1.4c-2,0.9-3.7,2.2-5,3.9c-1.4,1.7-2.4,3.6-3,5.9
			c-0.7,2.3-1,4.8-1,7.5c0,6.4,1.5,11.1,4.6,14.1c3.1,3,7.2,4.5,12.5,4.5c1.8,0,3.5-0.1,5.1-0.4C639.5,657,641,656.6,642.3,656.1z"
			/>
		<path class="st0" d="M657.4,640c0,6.1,1.4,10.5,4.2,13.4c2.8,2.9,7,4.3,12.6,4.3c2.3,0,4.4-0.2,6.3-0.6c1.9-0.4,3.8-0.9,5.7-1.6
			c0.3,0.7,0.5,1.5,0.7,2.4c0.2,1,0.3,1.8,0.3,2.6c-1.7,0.8-3.8,1.4-6.1,1.8c-2.3,0.4-4.9,0.6-7.6,0.6c-3.9,0-7.3-0.6-10.1-1.7
			c-2.8-1.2-5.2-2.8-7-4.9c-1.8-2.1-3.2-4.6-4-7.5c-0.9-2.9-1.3-6.1-1.3-9.5c0-3.3,0.4-6.5,1.2-9.4c0.8-2.9,2-5.5,3.7-7.7
			c1.6-2.2,3.7-3.9,6.3-5.2c2.6-1.2,5.6-1.9,9.2-1.9c3,0,5.6,0.5,8,1.5c2.3,1,4.3,2.4,5.8,4.2c1.6,1.8,2.8,4,3.6,6.5
			c0.8,2.5,1.2,5.3,1.2,8.3c0,0.5,0,1.2,0,2.1c0,0.8-0.1,1.6-0.1,2.1H657.4z M684.2,635.1c0-1.9-0.2-3.7-0.7-5.5
			c-0.5-1.8-1.2-3.4-2.2-4.7c-1-1.3-2.3-2.4-3.9-3.3c-1.6-0.8-3.5-1.3-5.8-1.3c-4.2,0-7.4,1.3-9.8,3.9c-2.3,2.6-3.7,6.1-4.2,10.8
			H684.2z"/>
		<path class="st0" d="M702.8,616.3c0.4-0.1,0.9-0.1,1.5-0.1c0.7,0,1.1,0,1.4,0c0.4,0,0.8,0,1.5,0c0.6,0,1.1,0.1,1.5,0.1v25.6
			c0,3.2,0.3,5.8,1,7.9c0.7,2,1.6,3.7,2.9,4.8c1.3,1.2,2.8,2,4.7,2.4c1.8,0.5,3.9,0.7,6.3,0.7c2,0,3.7-0.1,5.3-0.3
			c1.5-0.2,2.9-0.5,4.1-0.9v-40.3c0.4-0.1,0.9-0.1,1.5-0.1c0.7,0,1.1,0,1.4,0c0.3,0,0.9,0,1.5,0c0.6,0,1.1,0.1,1.5,0.1v44.4
			c-2.2,0.6-4.7,1.1-7.4,1.6c-2.7,0.4-5.5,0.7-8.4,0.7c-2.8,0-5.4-0.3-7.9-0.8c-2.5-0.5-4.6-1.6-6.4-3.1c-1.8-1.5-3.3-3.6-4.3-6.3
			c-1.1-2.7-1.6-6.2-1.6-10.5V616.3z"/>
		<path class="st0" d="M756.6,621.3h-7.8c-0.1-0.3-0.1-0.7-0.1-1.2c0-0.5,0-0.9,0-1.4c0-0.5,0-0.9,0-1.3c0-0.4,0.1-0.8,0.1-1.1h7.8
			v-8.6l5.6-5.4h0.3v14h12.4c0,0.3,0.1,0.7,0.1,1.1c0,0.4,0,0.9,0,1.3c0,0.5,0,1,0,1.4c0,0.5-0.1,0.9-0.1,1.2h-12.4V651
			c0,1.5,0.2,2.7,0.6,3.5c0.4,0.9,0.9,1.5,1.5,2c0.6,0.5,1.3,0.8,2.2,0.9c0.8,0.1,1.6,0.2,2.5,0.2c2.1,0,3.9-0.3,5.5-0.8
			c0.4,1.5,0.7,3.2,0.9,5c-2.1,0.7-4.7,1-7.5,1c-3.4,0-6.2-0.9-8.3-2.7c-2.1-1.8-3.2-4.8-3.2-8.9V621.3z"/>
		<path class="st0" d="M787.7,621.3h-5.8c0-0.3-0.1-0.7-0.1-1.1c0-0.4,0-0.9,0-1.3c0-0.5,0-1,0-1.4c0-0.5,0.1-0.9,0.1-1.2h11.6v45.5
			c-0.3,0.1-0.8,0.1-1.5,0.1c-0.6,0-1.1,0-1.5,0c-0.3,0-0.8,0-1.4,0c-0.7,0-1.1-0.1-1.5-0.1V621.3z M784.7,605.1
			c0-0.5-0.1-1.2-0.1-2c0-0.8-0.1-1.4-0.1-2c0-0.5,0-1.1,0.1-1.8c0-0.7,0.1-1.3,0.1-1.8c0.5-0.1,1.2-0.1,2-0.1c0.8,0,1.4,0,2,0
			c0.5,0,1.1,0,1.8,0c0.7,0,1.3,0.1,1.8,0.1c0.1,0.5,0.1,1.1,0.1,1.8c0,0.7,0,1.3,0,1.8c0,0.5,0,1.2,0,2c0,0.8-0.1,1.4-0.1,2
			c-0.5,0.1-1.1,0.1-1.8,0.1c-0.7,0-1.3,0-1.8,0c-0.5,0-1.2,0-2,0C785.9,605.2,785.2,605.2,784.7,605.1z"/>
		<path class="st0" d="M839.6,656.1c0.3,0.6,0.6,1.4,0.8,2.4c0.3,1,0.5,1.9,0.6,2.5c-1.5,0.5-3.2,1-5.1,1.3c-1.9,0.4-4,0.5-6.3,0.5
			c-7.4,0-13.1-2-17-6.1c-3.9-4.1-5.8-10-5.8-17.7c0-3.4,0.5-6.5,1.4-9.4c0.9-2.9,2.4-5.4,4.2-7.5c1.8-2.1,4.2-3.8,6.9-5
			c2.8-1.2,6-1.8,9.6-1.8c2.2,0,4.4,0.2,6.5,0.5c2.1,0.3,3.7,0.7,4.9,1.1c0,0.8-0.1,1.7-0.3,2.7c-0.2,1-0.4,1.8-0.7,2.4
			c-1.2-0.4-2.7-0.8-4.5-1.1c-1.8-0.3-3.8-0.4-5.8-0.4c-2.7,0-5,0.5-7,1.4c-2,0.9-3.7,2.2-5,3.9c-1.4,1.7-2.3,3.6-3,5.9
			c-0.7,2.3-1,4.8-1,7.5c0,6.4,1.5,11.1,4.6,14.1c3.1,3,7.2,4.5,12.5,4.5c1.8,0,3.5-0.1,5.1-0.4C836.8,657,838.3,656.6,839.6,656.1z
			"/>
		<path class="st0" d="M877.4,631.8c0-4-0.9-6.8-2.8-8.6c-1.9-1.8-4.6-2.7-8.2-2.7c-2.4,0-4.6,0.2-6.5,0.5c-2,0.3-3.7,0.7-5.3,1.2
			c-0.3-0.5-0.6-1.3-0.8-2.3c-0.2-1-0.3-2-0.3-2.9c1.6-0.5,3.5-0.9,5.7-1.2c2.3-0.3,4.6-0.5,7-0.5c5.8,0,10.1,1.3,12.9,3.8
			c2.8,2.5,4.2,6.5,4.2,11.9V661c-2.1,0.4-4.6,0.8-7.6,1.3c-3,0.4-5.8,0.6-8.5,0.6c-5.6,0-9.9-1.1-13.1-3.3
			c-3.2-2.2-4.8-5.8-4.8-10.7c0-2.4,0.5-4.5,1.4-6.4c0.9-1.9,2.2-3.5,3.8-4.7c1.6-1.3,3.6-2.2,5.9-2.9c2.3-0.7,4.8-1,7.6-1
			c2.2,0,4,0.1,5.6,0.2c1.6,0.2,2.8,0.3,3.9,0.4V631.8z M877.4,639.7c-1-0.1-2.3-0.3-3.8-0.4c-1.5-0.1-3-0.2-4.3-0.2
			c-4.5,0-7.9,0.8-10.4,2.5c-2.5,1.7-3.7,4.1-3.7,7.1c0,2,0.4,3.5,1.1,4.7c0.8,1.2,1.7,2.1,2.9,2.7c1.2,0.6,2.5,1,3.9,1.3
			c1.4,0.2,2.9,0.3,4.3,0.3c1.8,0,3.6-0.1,5.2-0.3c1.6-0.2,3.2-0.4,4.8-0.7V639.7z"/>
		<path class="st0" d="M898.2,596.2c0.4-0.1,0.9-0.1,1.5-0.1c0.6,0,1.1,0,1.5,0c0.3,0,0.8,0,1.4,0c0.6,0,1.2,0.1,1.5,0.1v55.1
			c0,1.5,0.2,2.8,0.6,3.6c0.3,0.9,0.8,1.5,1.3,1.9c0.5,0.4,1.1,0.6,1.8,0.7c0.6,0.1,1.2,0.1,1.8,0.1c0.7,0,1.3,0,2.1-0.1
			c0.7-0.1,1.3-0.2,1.8-0.3c0.3,0.7,0.5,1.5,0.6,2.3c0.2,0.8,0.2,1.6,0.3,2.3c-0.8,0.3-1.8,0.5-2.8,0.6c-1.1,0.1-2,0.2-2.9,0.2
			c-1.3,0-2.5-0.1-3.8-0.4c-1.3-0.3-2.4-0.8-3.4-1.5c-1-0.8-1.8-1.8-2.4-3c-0.6-1.3-0.9-3-0.9-5V596.2z"/>
		<path class="st0" d="M986.8,654.5c0.5,0.9,0.9,1.8,1.2,2.6c0.3,0.8,0.6,1.7,0.8,2.6c-2,1-4.4,1.8-7.3,2.4
			c-2.8,0.6-5.7,0.8-8.8,0.8c-4.4,0-8.4-0.7-11.9-2.1c-3.6-1.4-6.7-3.5-9.3-6.3c-2.6-2.7-4.6-6.1-6-10.2c-1.4-4-2.1-8.7-2.1-13.9
			c0-5.4,0.7-10.1,2.1-14.3c1.4-4.2,3.4-7.7,5.9-10.6c2.6-2.9,5.6-5.1,9.2-6.6c3.6-1.5,7.6-2.3,12.1-2.3c3.8,0,6.9,0.3,9.4,0.8
			c2.5,0.5,4.3,1,5.5,1.3c-0.1,1.1-0.3,2-0.5,2.7c-0.2,0.7-0.5,1.6-0.9,2.6c-0.8-0.3-1.6-0.5-2.4-0.7c-0.8-0.2-1.7-0.4-2.7-0.6
			c-1-0.2-2.2-0.3-3.5-0.4c-1.3-0.1-2.9-0.2-4.7-0.2c-3.5,0-6.7,0.6-9.5,1.9c-2.8,1.3-5.2,3.1-7.2,5.6c-2,2.4-3.5,5.4-4.6,8.9
			c-1.1,3.5-1.6,7.5-1.6,12c0,4.6,0.6,8.6,1.8,12c1.2,3.4,2.8,6.2,4.9,8.4c2.1,2.2,4.6,3.9,7.4,5c2.8,1.1,5.9,1.6,9.2,1.6
			c2.8,0,5.3-0.3,7.6-0.8C983.3,656,985.2,655.3,986.8,654.5z"/>
		<path class="st0" d="M1016.8,662.9c-3.4,0-6.4-0.6-9-1.8c-2.6-1.2-4.7-2.9-6.4-5c-1.7-2.1-3-4.7-3.8-7.6c-0.8-2.9-1.3-6-1.3-9.4
			c0-3.3,0.4-6.5,1.3-9.4c0.8-2.9,2.1-5.4,3.8-7.6c1.7-2.1,3.8-3.8,6.4-5c2.6-1.2,5.6-1.8,9-1.8c3.4,0,6.4,0.6,8.9,1.8
			c2.5,1.2,4.6,2.9,6.4,5c1.7,2.1,3,4.7,3.8,7.6c0.9,2.9,1.3,6,1.3,9.4c0,3.3-0.5,6.5-1.3,9.4c-0.8,2.9-2.1,5.4-3.8,7.6
			c-1.7,2.1-3.8,3.8-6.4,5C1023.2,662.3,1020.2,662.9,1016.8,662.9z M1016.8,657.7c4.8,0,8.3-1.7,10.7-5c2.4-3.3,3.5-7.9,3.5-13.6
			c0-5.8-1.2-10.3-3.5-13.7c-2.4-3.3-5.9-5-10.7-5c-4.8,0-8.4,1.7-10.7,5c-2.4,3.3-3.5,7.9-3.5,13.7c0,5.8,1.2,10.3,3.5,13.6
			C1008.5,656.1,1012,657.7,1016.8,657.7z"/>
		<path class="st0" d="M1050.4,616.3c0.5-0.1,0.9-0.1,1.4-0.1c0.4,0,0.9,0,1.3,0c0.5,0,0.9,0,1.3,0c0.4,0,0.8,0.1,1.3,0.1
			c0.1,1.1,0.2,2.4,0.3,3.8c0.1,1.5,0.1,2.8,0.1,4c0.5-1.1,1.2-2.2,2-3.3c0.8-1.1,1.8-2,3-2.8c1.1-0.8,2.4-1.5,3.9-2
			c1.5-0.5,3.1-0.8,5-0.8c1.7,0,3.2,0.2,4.5,0.6c1.2,0.4,2.3,1,3.2,1.7c0.9,0.7,1.7,1.6,2.3,2.6c0.6,1,1.2,2.1,1.7,3.4
			c0.7-1,1.4-1.9,2.2-3c0.8-1,1.8-1.9,2.9-2.7c1.1-0.8,2.3-1.5,3.7-1.9c1.4-0.5,2.9-0.8,4.7-0.8c5.3,0,9.2,1.5,11.5,4.6
			c2.3,3,3.5,7.4,3.5,13v29c-0.4,0.1-0.9,0.1-1.5,0.1c-0.6,0-1.1,0-1.5,0c-0.3,0-0.8,0-1.4,0c-0.7,0-1.2-0.1-1.5-0.1v-27
			c0-4.8-0.8-8.4-2.4-10.7c-1.6-2.3-4-3.5-7.1-3.5c-1.9,0-3.6,0.4-5,1.2c-1.4,0.8-2.6,1.8-3.6,3.1c-0.9,1.3-1.7,2.8-2.2,4.6
			c-0.5,1.8-0.8,3.6-0.8,5.6v26.7c-0.4,0.1-0.9,0.1-1.5,0.1c-0.6,0-1.1,0-1.5,0c-0.3,0-0.8,0-1.4,0c-0.7,0-1.2-0.1-1.5-0.1v-28.1
			c0-4.6-0.7-8-2.2-10.2c-1.5-2.2-3.6-3.3-6.3-3.3c-1.8,0-3.5,0.5-5.1,1.4c-1.5,0.9-2.9,2.2-4.1,3.9c-1.1,1.7-2,3.7-2.6,6
			c-0.6,2.3-0.9,4.8-0.9,7.5v22.9c-0.4,0.1-0.8,0.1-1.5,0.1c-0.6,0-1.1,0-1.5,0c-0.3,0-0.8,0-1.4,0c-0.7,0-1.2-0.1-1.5-0.1V616.3z"
			/>
		<path class="st0" d="M1125.2,616.3c0.4-0.1,0.8-0.1,1.3-0.1c0.5,0,1,0,1.3,0c0.4,0,0.8,0,1.4,0c0.5,0,1,0.1,1.3,0.1l0.5,6.3
			c1.2-1.9,3.1-3.6,5.4-5.1c2.4-1.5,5.4-2.2,9.2-2.2c2.8,0,5.4,0.4,7.7,1.3c2.3,0.9,4.3,2.2,6,4.1c1.6,1.8,2.9,4.2,3.8,7
			c0.9,2.8,1.4,6.2,1.4,10.1c0,3.9-0.5,7.5-1.6,10.6c-1.1,3.1-2.6,5.8-4.7,8c-2,2.2-4.6,3.8-7.6,5c-3,1.2-6.5,1.7-10.3,1.7
			c-1.4,0-3-0.1-4.7-0.4c-1.7-0.2-3.2-0.6-4.6-1.1v21.4c-0.4,0.1-0.9,0.1-1.5,0.1c-0.7,0-1.1,0-1.4,0c-0.4,0-0.9,0-1.5,0
			c-0.6,0-1.1-0.1-1.4-0.1V616.3z M1131.1,656c1.4,0.5,2.8,0.9,4.3,1.2c1.5,0.3,3.4,0.4,5.9,0.4c2.3,0,4.5-0.4,6.6-1.1
			c2.1-0.7,3.9-1.9,5.5-3.5c1.5-1.6,2.8-3.7,3.7-6.1c0.9-2.5,1.3-5.4,1.3-8.9c0-5.5-1-9.8-3.1-12.9c-2.1-3.1-5.4-4.6-10-4.6
			c-1.4,0-3,0.2-4.7,0.7c-1.7,0.5-3.2,1.3-4.6,2.5c-1.4,1.2-2.6,2.7-3.5,4.6c-0.9,1.9-1.4,4.2-1.4,7.1V656z"/>
		<path class="st0" d="M1195.7,662.9c-3.4,0-6.4-0.6-9-1.8c-2.5-1.2-4.7-2.9-6.4-5c-1.7-2.1-3-4.7-3.8-7.6c-0.8-2.9-1.2-6-1.2-9.4
			c0-3.3,0.4-6.5,1.2-9.4c0.8-2.9,2.1-5.4,3.8-7.6c1.7-2.1,3.8-3.8,6.4-5c2.6-1.2,5.6-1.8,9-1.8c3.4,0,6.4,0.6,8.9,1.8
			c2.5,1.2,4.7,2.9,6.4,5c1.7,2.1,3,4.7,3.8,7.6c0.9,2.9,1.3,6,1.3,9.4c0,3.3-0.4,6.5-1.3,9.4c-0.8,2.9-2.1,5.4-3.8,7.6
			c-1.7,2.1-3.8,3.8-6.4,5C1202,662.3,1199.1,662.9,1195.7,662.9z M1195.7,657.7c4.8,0,8.4-1.7,10.7-5c2.4-3.3,3.5-7.9,3.5-13.6
			c0-5.8-1.2-10.3-3.5-13.7c-2.3-3.3-5.9-5-10.7-5c-4.8,0-8.3,1.7-10.7,5c-2.3,3.3-3.5,7.9-3.5,13.7c0,5.8,1.2,10.3,3.5,13.6
			C1187.3,656.1,1190.9,657.7,1195.7,657.7z"/>
		<path class="st0" d="M1228.8,616.3c0.4-0.1,0.9-0.1,1.5-0.1c0.7,0,1.1,0,1.4,0c0.4,0,0.8,0,1.5,0c0.6,0,1.1,0.1,1.5,0.1v25.6
			c0,3.2,0.3,5.8,1,7.9c0.7,2,1.6,3.7,2.9,4.8c1.3,1.2,2.8,2,4.7,2.4c1.8,0.5,3.9,0.7,6.3,0.7c2,0,3.7-0.1,5.3-0.3
			c1.6-0.2,2.9-0.5,4.1-0.9v-40.3c0.4-0.1,0.9-0.1,1.5-0.1c0.6,0,1.1,0,1.4,0c0.4,0,0.9,0,1.5,0c0.6,0,1.1,0.1,1.5,0.1v44.4
			c-2.2,0.6-4.7,1.1-7.4,1.6c-2.7,0.4-5.5,0.7-8.4,0.7c-2.8,0-5.4-0.3-7.9-0.8c-2.5-0.5-4.6-1.6-6.4-3.1c-1.8-1.5-3.3-3.6-4.3-6.3
			c-1.1-2.7-1.6-6.2-1.6-10.5V616.3z"/>
		<path class="st0" d="M1280.7,616.3c0.5-0.1,0.9-0.1,1.4-0.1c0.4,0,0.9,0,1.3,0c0.5,0,0.9,0,1.3,0c0.4,0,0.9,0.1,1.4,0.1
			c0.1,1.1,0.2,2.4,0.3,4c0,1.6,0.1,3,0.1,4.2c0.6-1.1,1.4-2.2,2.4-3.3c1-1.1,2.1-2.1,3.3-3c1.3-0.9,2.8-1.6,4.4-2.2
			c1.7-0.6,3.5-0.8,5.5-0.8c5.3,0,9.1,1.6,11.4,4.7c2.4,3.1,3.6,7.5,3.6,13.2v28.7c-0.4,0.1-0.9,0.1-1.5,0.1c-0.6,0-1.1,0-1.5,0
			c-0.3,0-0.8,0-1.4,0c-0.7,0-1.2-0.1-1.5-0.1v-27c0-5-0.8-8.7-2.4-10.9c-1.6-2.2-4-3.3-7.1-3.3c-2.1,0-4.1,0.4-5.9,1.2
			c-1.9,0.8-3.5,2-4.8,3.6c-1.3,1.6-2.4,3.5-3.2,5.8c-0.8,2.3-1.2,5-1.2,7.9v22.5c-0.4,0.1-0.9,0.1-1.5,0.1c-0.6,0-1.1,0-1.5,0
			c-0.3,0-0.8,0-1.4,0c-0.7,0-1.2-0.1-1.5-0.1V616.3z"/>
		<path class="st0" d="M1362.5,596.2c0.4-0.1,0.9-0.1,1.5-0.1c0.7,0,1.1,0,1.4,0c0.4,0,0.9,0,1.5,0c0.6,0,1.1,0.1,1.5,0.1v64.6
			c-1.8,0.6-4.1,1.1-6.9,1.5c-2.7,0.4-5.6,0.6-8.6,0.6c-3.3,0-6.4-0.4-9.2-1.2c-2.8-0.8-5.3-2.1-7.4-3.8c-2.1-1.8-3.7-4.1-5-7.1
			c-1.2-2.9-1.8-6.5-1.8-10.8c0-3.9,0.5-7.4,1.6-10.5c1.1-3.1,2.6-5.6,4.6-7.8c1.9-2.1,4.3-3.7,7.1-4.9c2.8-1.1,5.8-1.7,9.1-1.7
			c2,0,3.9,0.2,5.9,0.5c1.9,0.3,3.5,0.7,4.7,1.1V596.2z M1362.5,622.4c-1.2-0.5-2.7-0.9-4.6-1.3c-1.9-0.4-3.8-0.6-5.7-0.6
			c-2.8,0-5.2,0.5-7.3,1.4c-2.1,1-3.8,2.3-5.1,4c-1.4,1.7-2.4,3.7-3.1,6.1c-0.7,2.4-1,5-1,7.9c0,6.2,1.5,10.7,4.4,13.5
			c3,2.8,7.1,4.2,12.6,4.2c2,0,3.9-0.1,5.6-0.3c1.8-0.2,3.2-0.5,4.2-0.8V622.4z"/>
		<path class="st0" d="M1386.9,621.3h-5.7c0-0.3-0.1-0.7-0.1-1.1c0-0.4,0-0.9,0-1.3c0-0.5,0-1,0-1.4c0-0.5,0.1-0.9,0.1-1.2h11.6
			v45.5c-0.4,0.1-0.9,0.1-1.5,0.1c-0.6,0-1.1,0-1.5,0c-0.3,0-0.8,0-1.4,0c-0.6,0-1.2-0.1-1.5-0.1V621.3z M1384,605.1
			c-0.1-0.5-0.1-1.2-0.1-2c0-0.8-0.1-1.4-0.1-2c0-0.5,0-1.1,0.1-1.8c0-0.7,0.1-1.3,0.1-1.8c0.5-0.1,1.2-0.1,2-0.1c0.8,0,1.4,0,2,0
			c0.5,0,1.1,0,1.8,0c0.7,0,1.3,0.1,1.8,0.1c0,0.5,0.1,1.1,0.1,1.8c0,0.7,0,1.3,0,1.8c0,0.5,0,1.2,0,2c0,0.8-0.1,1.4-0.1,2
			c-0.5,0.1-1.1,0.1-1.8,0.1c-0.7,0-1.3,0-1.8,0c-0.5,0-1.2,0-2,0C1385.2,605.2,1384.5,605.2,1384,605.1z"/>
		<path class="st0" d="M1408.6,616.3c0.5-0.1,0.9-0.1,1.4-0.1c0.5,0,0.9,0,1.3,0c0.5,0,0.9,0,1.3,0c0.4,0,0.9,0.1,1.3,0.1
			c0.1,1.1,0.2,2.4,0.3,4c0,1.6,0.1,3,0.1,4.2c0.6-1.1,1.4-2.2,2.3-3.3c0.9-1.1,2.1-2.1,3.3-3c1.3-0.9,2.8-1.6,4.4-2.2
			c1.6-0.6,3.5-0.8,5.4-0.8c5.3,0,9.1,1.6,11.4,4.7c2.4,3.1,3.6,7.5,3.6,13.2v28.7c-0.3,0.1-0.9,0.1-1.5,0.1c-0.6,0-1.1,0-1.5,0
			c-0.3,0-0.8,0-1.5,0c-0.7,0-1.2-0.1-1.5-0.1v-27c0-5-0.8-8.7-2.4-10.9c-1.6-2.2-4-3.3-7.1-3.3c-2.1,0-4.1,0.4-5.9,1.2
			c-1.8,0.8-3.4,2-4.8,3.6c-1.3,1.6-2.4,3.5-3.2,5.8c-0.8,2.3-1.2,5-1.2,7.9v22.5c-0.3,0.1-0.8,0.1-1.5,0.1c-0.6,0-1.1,0-1.5,0
			c-0.3,0-0.8,0-1.4,0c-0.7,0-1.2-0.1-1.5-0.1V616.3z"/>
		<path class="st0" d="M1483.3,657.3c5.3,0.1,9,1.2,11.2,3.3c2.2,2.1,3.4,4.8,3.4,8.2c0,2.3-0.6,4.4-1.8,6.3c-1.2,1.9-2.8,3.5-5,4.8
			c-2.1,1.3-4.7,2.4-7.7,3.1c-2.9,0.7-6.1,1.1-9.6,1.1c-2.7,0-5.1-0.2-7.4-0.6c-2.2-0.4-4.2-1.1-5.8-2c-1.6-0.9-2.9-2.1-3.8-3.7
			c-0.9-1.5-1.3-3.4-1.3-5.6c0-2.3,0.7-4.4,2-6.5c1.3-2.1,3-3.6,5.1-4.6c-1.1-0.7-2.1-1.6-2.8-2.7c-0.8-1.1-1.2-2.5-1.2-4.1
			c0-2.3,0.5-4.3,1.7-5.8c1.1-1.6,2.6-2.9,4.4-4.2c-2.1-1.3-3.7-3.1-5-5.3c-1.3-2.2-1.9-4.8-1.9-7.8c0-2.2,0.4-4.3,1.1-6.2
			c0.7-1.9,1.9-3.6,3.4-5.1c1.5-1.4,3.3-2.6,5.5-3.4c2.2-0.8,4.7-1.3,7.6-1.3c2.5,0,4.6,0.3,6.5,0.9c1.9,0.6,3.6,1.5,5,2.5
			c0.6-0.2,1.3-0.5,2.2-0.8c0.9-0.3,1.9-0.6,2.9-0.8c1.1-0.2,2.2-0.4,3.3-0.5c1.2-0.2,2.2-0.2,3.3-0.2c0.2,0.9,0.4,1.9,0.4,2.9
			c0,1.1-0.1,2.1-0.4,3h-8.5c0.8,1.3,1.5,2.7,1.9,4.2c0.5,1.5,0.7,3,0.7,4.7c0,2.6-0.4,4.8-1.3,6.8c-0.9,2-2.1,3.6-3.7,4.9
			c-1.6,1.3-3.4,2.4-5.5,3.1c-2.1,0.7-4.4,1.1-6.8,1.1c-2.6,0-4.8-0.3-6.7-1c-1.6,1.1-2.8,2.1-3.5,3.1c-0.7,1-1,2.1-1,3.3
			c0,0.6,0.1,1.2,0.3,1.7c0.2,0.5,0.6,1,1.1,1.5c0.6,0.5,1.4,0.8,2.4,1.1c1,0.3,2.3,0.4,4,0.4L1483.3,657.3z M1470.6,662.7
			c-2.8-0.1-5,0.7-6.7,2.4c-1.7,1.6-2.5,3.8-2.5,6.5c0,1.4,0.3,2.6,1,3.6c0.6,1,1.6,1.7,2.7,2.2c1.1,0.5,2.5,0.9,4,1.1
			c1.6,0.2,3.2,0.3,4.9,0.3c5.5,0,9.9-0.9,13-2.8c3.1-1.9,4.7-4.1,4.7-6.7c0-2.3-0.8-3.9-2.3-4.8c-1.6-0.9-4.1-1.4-7.6-1.5
			L1470.6,662.7z M1464,631.1c0,3.1,0.9,5.7,2.7,7.8c1.8,2.1,4.7,3.2,8.6,3.2c3.9,0,6.7-1,8.6-3.2c1.8-2.1,2.8-4.7,2.8-7.8
			c0-3.1-0.9-5.7-2.8-7.8c-1.8-2.1-4.7-3.2-8.6-3.2c-3.9,0-6.7,1.1-8.6,3.2C1464.9,625.4,1464,628,1464,631.1z"/>
	</g>
	<g>
		<g>
			<path class="st0" d="M1630.7,393.1c2-0.4,4.8-0.6,7.5-0.6c4.2,0,6.9,0.8,8.8,2.5c1.5,1.4,2.3,3.4,2.3,5.7c0,4-2.5,6.6-5.7,7.7
				v0.1c2.3,0.8,3.7,3,4.4,6.1c1,4.2,1.7,7.1,2.3,8.3h-4c-0.5-0.9-1.2-3.5-2-7.2c-0.9-4.2-2.5-5.7-6-5.9h-3.7v13.1h-3.9V393.1z
				 M1634.6,406.9h4c4.2,0,6.9-2.3,6.9-5.7c0-3.9-2.8-5.6-7-5.6c-1.9,0-3.2,0.1-3.9,0.3V406.9z"/>
		</g>
		<g>
			<path class="st0" d="M1615.9,407.4c0-13.2,10.7-23.8,23.8-23.8l0,0c13.2,0,23.8,10.7,23.8,23.8l0,0c0,13.2-10.7,23.8-23.8,23.8
				l0,0C1626.5,431.2,1615.9,420.5,1615.9,407.4L1615.9,407.4z M1618.7,407.4c0,11.6,9.4,21,21,21l0,0c11.6,0,21-9.4,21-21l0,0
				c0-11.6-9.4-21-21-21l0,0C1628.1,386.3,1618.7,395.8,1618.7,407.4L1618.7,407.4z"/>
		</g>
	</g>
</g>
</svg>
