<svg xmlns="http://www.w3.org/2000/svg" width="250" height="50" viewBox="0 0 250 50"><defs><style>.a{fill:#0070b7;}.b{fill:#4f5e6d;}</style></defs><g transform="translate(22448 16830.725)"><g transform="translate(-22448 -16830.725)"><path class="a" d="M132.021,252.843c0,4.6,3.3,8.617,8.208,8.617,5.109,0,8.106-4.428,8.106-8.583,0-4.224-3-8.651-8.14-8.651-5.041,0-8.174,4.155-8.174,8.583Zm-5.075.2a12.861,12.861,0,1,1,0,.034Z" transform="translate(-126.946 -239.764)"/><path class="a" d="M211.413,258.409H215.6v2.35a6.161,6.161,0,0,1,5.449-2.929,6.071,6.071,0,0,1,4.6,1.907,8.648,8.648,0,0,1,1.124,1.7,7.714,7.714,0,0,1,1.362-1.771,7.316,7.316,0,0,1,9.741.034c1.7,1.771,2.044,3.3,2.044,7.152v10.252h-4.462V267.026a6.356,6.356,0,0,0-.749-3.474,2.973,2.973,0,0,0-2.929-1.533,3.5,3.5,0,0,0-3.236,1.7,5.919,5.919,0,0,0-.647,3.133v10.252h-4.462V266.856a6.806,6.806,0,0,0-.579-3.1,3.3,3.3,0,0,0-3.065-1.737,3.482,3.482,0,0,0-3.2,1.737,6.709,6.709,0,0,0-.715,3.236v10.116h-4.462Z" transform="translate(-181.477 -251.427)"/><path class="a" d="M304.046,247.614h4.462v18.7h-4.462Zm0-6.505h4.462v3.985h-4.462Z" transform="translate(-241.279 -240.632)"/><path class="a" d="M345.765,270.3a10,10,0,1,1,0-4.938H341.2a5.57,5.57,0,0,0-9.026-1.771,6.107,6.107,0,0,0-1.533,4.156,5.452,5.452,0,0,0,5.518,5.756,5.3,5.3,0,0,0,5.041-3.2Z" transform="translate(-255.548 -251.428)"/><path class="a" d="M390.818,258.409h4.224v2.452a5.346,5.346,0,0,1,5.177-3.031v4.5h-.2c-3.133,0-4.734,1.465-4.734,4.7v10.082h-4.462Z" transform="translate(-297.298 -251.427)"/><path class="a" d="M423.628,267.838a5.742,5.742,0,1,0,0-.034Zm-4.462-.068a9.929,9.929,0,1,1,0,.034Z" transform="translate(-315.599 -251.49)"/><path class="a" d="M485.374,258.408h4.189c0,.817,0,1.6-.034,2.486a6.1,6.1,0,0,1,5.824-3.065c6.1.034,7.255,4.7,7.255,8v11.273h-4.462v-10.15c0-2.793-.92-4.939-4.053-4.939-3.167.034-4.257,2.146-4.257,4.769v10.32h-4.462Z" transform="translate(-358.342 -251.426)"/><path class="a" d="M547.066,241.109h5.074v20.742h8.277v4.462H547.066Z" transform="translate(-398.17 -240.633)"/><path class="a" d="M593.231,267.844a5.612,5.612,0,0,0,5.688,5.688,5.293,5.293,0,0,0,4.972-3,6.423,6.423,0,0,0,.716-2.623,5.824,5.824,0,0,0-.511-2.623,5.486,5.486,0,0,0-5.211-3.3,5.625,5.625,0,0,0-5.654,5.824Zm15.8,9.264h-4.462v-2.691a6.957,6.957,0,0,1-6.3,3.269c-5.995,0-9.5-4.666-9.5-9.945,0-5.893,4.257-9.912,9.5-9.912a6.982,6.982,0,0,1,6.3,3.3v-2.725h4.462Z" transform="translate(-425.093 -251.427)"/><path class="a" d="M674,256.912a5.638,5.638,0,1,0-11.273.034,5.523,5.523,0,0,0,5.552,5.79,5.634,5.634,0,0,0,5.722-5.79Zm-15.565-15.8H662.9v8.821a8.1,8.1,0,0,1,6.233-2.9c4.428,0,9.332,3.236,9.332,9.843,0,6.335-4.428,10.013-9.536,10.013a6.893,6.893,0,0,1-6.2-3.269v2.691h-4.292Z" transform="translate(-470.07 -240.632)"/></g><g transform="translate(-22445.873 -16796.07)"><path class="b" d="M132.325,340.313h.605l1.929,2.89,1.929-2.89h.605v5.3h-.6v-4.29l-1.929,2.837h-.03l-1.929-2.83v4.282h-.583Z" transform="translate(-132.325 -340.223)"/><path class="b" d="M163.673,340.313H167.5v.545h-3.231v1.808h2.89v.545h-2.89v1.854h3.268v.545h-3.866Z" transform="translate(-152.563 -340.223)"/><path class="b" d="M192.631,345.058a2.05,2.05,0,0,0,2.194-2.081v-.015a2.061,2.061,0,0,0-2.194-2.1h-1.24v4.191Zm-1.838-4.744h1.838a2.639,2.639,0,0,1,2.814,2.633v.015a2.651,2.651,0,0,1-2.814,2.648h-1.838Z" transform="translate(-170.071 -340.223)"/><rect class="b" width="0.598" height="5.296" transform="translate(31.234 0.091)"/><path class="b" d="M238.669,342.811V342.8a2.668,2.668,0,0,1,2.678-2.739,2.757,2.757,0,0,1,2.066.84l-.409.439a2.3,2.3,0,0,0-1.664-.726,2.076,2.076,0,0,0-2.05,2.171v.015a2.09,2.09,0,0,0,2.05,2.187,2.3,2.3,0,0,0,1.71-.764l.393.386a2.758,2.758,0,0,1-2.118.931,2.642,2.642,0,0,1-2.656-2.724" transform="translate(-200.979 -340.057)"/><rect class="b" width="0.598" height="5.296" transform="translate(48.104 0.091)"/><path class="b" d="M286.928,340.313h.56l3.336,4.245v-4.245h.583v5.3h-.477l-3.42-4.343v4.343h-.583Z" transform="translate(-232.135 -340.223)"/><path class="b" d="M319.219,343.6l-1.2-2.7-1.211,2.7Zm-1.475-3.4h.56l2.414,5.334h-.643l-.62-1.4h-2.883l-.628,1.4h-.613Z" transform="translate(-250.471 -340.153)"/><path class="b" d="M367.418,343.2c.878,0,1.453-.469,1.453-1.165v-.015c0-.757-.567-1.15-1.422-1.15H366.11v2.33Zm-1.906-2.882h1.982c1.2,0,1.982.635,1.982,1.679v.015c0,1.143-.953,1.733-2.081,1.733H366.11v1.869h-.6Z" transform="translate(-282.867 -340.223)"/><path class="b" d="M392.589,340.313h3.828v.545h-3.231v1.808h2.89v.545h-2.89v1.854h3.268v.545h-3.866Z" transform="translate(-300.348 -340.223)"/><path class="b" d="M421.933,343.015c.794,0,1.362-.408,1.362-1.089v-.015c0-.651-.5-1.044-1.355-1.044h-1.634v2.148Zm-2.224-2.7h2.277a2.088,2.088,0,0,1,1.506.529,1.463,1.463,0,0,1,.409,1.044v.015a1.551,1.551,0,0,1-1.438,1.544l1.627,2.164h-.734l-1.536-2.058h-1.513v2.058h-.6Z" transform="translate(-317.856 -340.223)"/><path class="b" d="M446.979,344.7l.371-.439a2.523,2.523,0,0,0,1.816.749c.711,0,1.18-.378,1.18-.9V344.1c0-.492-.265-.772-1.377-1.006-1.218-.265-1.778-.658-1.778-1.528v-.015a1.563,1.563,0,0,1,1.74-1.445,2.766,2.766,0,0,1,1.861.65l-.348.461a2.326,2.326,0,0,0-1.528-.574c-.689,0-1.128.378-1.128.855v.015c0,.5.273.779,1.438,1.029s1.725.689,1.725,1.5v.015c0,.908-.757,1.5-1.809,1.5a3.1,3.1,0,0,1-2.163-.847" transform="translate(-335.462 -340.085)"/><path class="b" d="M478.56,342.811V342.8a2.105,2.105,0,0,0-2.088-2.186,2.08,2.08,0,0,0-2.073,2.171v.015a2.106,2.106,0,0,0,2.088,2.187,2.08,2.08,0,0,0,2.073-2.171m-4.782,0V342.8a2.7,2.7,0,1,1,5.4-.015v.015a2.7,2.7,0,1,1-5.4.015" transform="translate(-352.763 -340.057)"/><path class="b" d="M505.4,340.313h.56l3.336,4.245v-4.245h.583v5.3H509.4l-3.42-4.343v4.343H505.4Z" transform="translate(-373.179 -340.223)"/><path class="b" d="M537.693,343.6l-1.2-2.7-1.211,2.7Zm-1.475-3.4h.559l2.414,5.334h-.643l-.62-1.4h-2.883l-.628,1.4H533.8Z" transform="translate(-391.515 -340.153)"/><path class="b" d="M564.768,340.313h.6v4.744h2.981v.552h-3.579Z" transform="translate(-411.504 -340.223)"/><rect class="b" width="0.598" height="5.296" transform="translate(162.542 0.091)"/><path class="b" d="M609.142,345.208l3.427-4.358h-3.314v-.537h4.131v.4l-3.435,4.358h3.435v.537h-4.244Z" transform="translate(-440.152 -340.222)"/><path class="b" d="M640.043,343.6l-1.2-2.7-1.211,2.7Zm-1.475-3.4h.56l2.414,5.334H640.9l-.62-1.4H637.4l-.628,1.4h-.612Z" transform="translate(-457.591 -340.153)"/><path class="b" d="M668.955,345.058a2.05,2.05,0,0,0,2.194-2.081v-.015a2.061,2.061,0,0,0-2.194-2.1h-1.24v4.191Zm-1.838-4.744h1.838a2.64,2.64,0,0,1,2.815,2.633v.015a2.651,2.651,0,0,1-2.815,2.648h-1.838Z" transform="translate(-477.58 -340.223)"/><path class="b" d="M698.255,343.6l-1.2-2.7-1.211,2.7Zm-1.475-3.4h.56l2.414,5.334h-.643l-.62-1.4h-2.882l-.628,1.4h-.612Z" transform="translate(-495.172 -340.153)"/></g></g></svg>